<?xml version="1.0" encoding="UTF-8" standalone="no"?>
<svg
   xmlns:dc="http://purl.org/dc/elements/1.1/"
   xmlns:cc="http://creativecommons.org/ns#"
   xmlns:rdf="http://www.w3.org/1999/02/22-rdf-syntax-ns#"
   xmlns:svg="http://www.w3.org/2000/svg"
   xmlns="http://www.w3.org/2000/svg"
   xmlns:sodipodi="http://sodipodi.sourceforge.net/DTD/sodipodi-0.dtd"
   xmlns:inkscape="http://www.inkscape.org/namespaces/inkscape"
   width="130.11679mm"
   height="86.765884mm"
   viewBox="0 0 130.11679 86.765884"
   version="1.1"
   id="svg8"
   inkscape:version="1.0.1 (3bc2e813f5, 2020-09-07)"
   sodipodi:docname="logo_web.svg">
  <defs
     id="defs2" />
  <sodipodi:namedview
     id="base"
     pagecolor="#ffffff"
     bordercolor="#666666"
     borderopacity="1.0"
     inkscape:pageopacity="0.0"
     inkscape:pageshadow="2"
     inkscape:zoom="1.4"
     inkscape:cx="294.92004"
     inkscape:cy="165.7676"
     inkscape:document-units="mm"
     inkscape:current-layer="layer1"
     inkscape:document-rotation="0"
     showgrid="false"
     showguides="false"
     inkscape:window-width="1920"
     inkscape:window-height="1050"
     inkscape:window-x="1920"
     inkscape:window-y="0"
     inkscape:window-maximized="1"
     fit-margin-top="0"
     fit-margin-left="0"
     fit-margin-right="0"
     fit-margin-bottom="0" />
  <metadata
     id="metadata5">
    <rdf:RDF>
      <cc:Work
         rdf:about="">
        <dc:format>image/svg+xml</dc:format>
        <dc:type
           rdf:resource="http://purl.org/dc/dcmitype/StillImage" />
        <dc:title></dc:title>
      </cc:Work>
    </rdf:RDF>
  </metadata>
  <g
     inkscape:label="Capa 1"
     inkscape:groupmode="layer"
     id="layer1"
     transform="translate(-34.701839,-28.313563)">
    <ellipse
       style="fill:#ffffff;stroke-width:1"
       id="path948"
       cx="103.69887"
       cy="68.633812"
       rx="38.157139"
       ry="36.596432" />
    <g
       id="g897"
       transform="matrix(0.29569739,0,0,0.29569739,66.871035,14.702978)">
      <g
         id="g877"
         transform="translate(5.6750132,-4.7821587)">
        <path
           style="fill:#a5b1ed;stroke-width:0.264583"
           d="m 112.65377,309.59916 c 0.61846,-0.0557 1.6305,-0.0557 2.24896,0 0.61846,0.0557 0.11245,0.10128 -1.12448,0.10128 -1.23693,0 -1.74294,-0.0456 -1.12448,-0.10128 z m 12.03854,0.004 c 0.40018,-0.0606 1.05503,-0.0606 1.45521,0 0.40018,0.0606 0.0728,0.11023 -0.7276,0.11023 -0.80037,0 -1.12779,-0.0496 -0.72761,-0.11023 z m -16.13958,-0.25746 c 0.25466,-0.0666 0.67138,-0.0666 0.92604,0 0.25466,0.0666 0.0463,0.121 -0.46302,0.121 -0.50932,0 -0.71768,-0.0544 -0.46302,-0.121 z m 20.37795,-0.001 c 0.25743,-0.0671 0.61462,-0.0627 0.79375,0.01 0.17913,0.0725 -0.0315,0.12736 -0.46805,0.12197 -0.43657,-0.005 -0.58313,-0.0647 -0.3257,-0.13177 z m -22.89149,-0.25638 c 0.1819,-0.0734 0.47955,-0.0734 0.66146,0 0.1819,0.0734 0.0331,0.13346 -0.33073,0.13346 -0.36381,0 -0.51263,-0.0601 -0.33073,-0.13346 z m 25.66458,0 c 0.1819,-0.0734 0.47956,-0.0734 0.66146,0 0.1819,0.0734 0.0331,0.13346 -0.33073,0.13346 -0.3638,0 -0.51263,-0.0601 -0.33073,-0.13346 z m -27.78125,-0.26458 c 0.1819,-0.0734 0.47956,-0.0734 0.66146,0 0.1819,0.0734 0.0331,0.13345 -0.33073,0.13345 -0.3638,0 -0.51263,-0.06 -0.33073,-0.13345 z m 29.89792,0 c 0.1819,-0.0734 0.47956,-0.0734 0.66146,0 0.1819,0.0734 0.0331,0.13345 -0.33073,0.13345 -0.36381,0 -0.51263,-0.06 -0.33073,-0.13345 z m -31.75,-0.26458 c 0.1819,-0.0734 0.47955,-0.0734 0.66145,0 0.18191,0.0734 0.0331,0.13345 -0.33072,0.13345 -0.36381,0 -0.51263,-0.0601 -0.33073,-0.13345 z m 33.8832,-0.006 c 0.191,-0.0764 0.4192,-0.067 0.50712,0.0209 0.0879,0.0879 -0.0683,0.15045 -0.34727,0.13896 -0.30822,-0.0127 -0.37092,-0.0754 -0.15985,-0.15985 z m -35.73529,-0.25908 c 0.1819,-0.0734 0.47956,-0.0734 0.66146,0 0.1819,0.0734 0.0331,0.13346 -0.33073,0.13346 -0.3638,0 -0.51263,-0.0601 -0.33073,-0.13346 z m 37.32279,-0.005 c 0.191,-0.0764 0.4192,-0.067 0.50712,0.0209 0.0879,0.0879 -0.0684,0.15045 -0.34727,0.13896 -0.30822,-0.0127 -0.37092,-0.0754 -0.15985,-0.15985 z M 98.911973,308.0245 c 0.190995,-0.0764 0.4192,-0.067 0.507119,0.0209 0.08792,0.0879 -0.06835,0.15046 -0.347266,0.13897 -0.308226,-0.0127 -0.370919,-0.0754 -0.159853,-0.15985 z m 40.216667,0 c 0.191,-0.0764 0.4192,-0.067 0.50712,0.0209 0.0879,0.0879 -0.0684,0.15046 -0.34727,0.13897 -0.30822,-0.0127 -0.37092,-0.0754 -0.15985,-0.15985 z m -41.804167,-0.26459 c 0.190995,-0.0764 0.4192,-0.067 0.507119,0.0209 0.08792,0.0879 -0.06835,0.15045 -0.347266,0.13896 -0.308226,-0.0127 -0.370919,-0.0754 -0.159853,-0.15985 z m -1.322917,-0.26458 c 0.190995,-0.0764 0.419201,-0.067 0.507119,0.0209 0.08792,0.0879 -0.06835,0.15045 -0.347266,0.13896 -0.308226,-0.0127 -0.370919,-0.0754 -0.159853,-0.15985 z M 191.03659,284.822 c 0,-0.0549 0.20836,-0.2633 0.46302,-0.46302 0.41964,-0.32911 0.429,-0.31975 0.0999,0.0999 -0.34564,0.44073 -0.56291,0.58089 -0.56291,0.36313 z m 3.30729,-2.81052 c 0.26339,-0.29104 0.53842,-0.52917 0.61118,-0.52917 0.0728,0 -0.0832,0.23813 -0.3466,0.52917 -0.26339,0.29104 -0.53842,0.52917 -0.61118,0.52917 -0.0728,0 0.0832,-0.23813 0.3466,-0.52917 z m -151.631396,-0.8599 -0.504029,-0.59531 0.595313,0.50403 c 0.327421,0.27721 0.595312,0.5451 0.595312,0.59531 0,0.21173 -0.212934,0.0554 -0.686596,-0.50403 z M 196.59284,280.0271 c 0.34177,-0.3638 0.68094,-0.66145 0.7537,-0.66145 0.0728,0 -0.14735,0.29765 -0.48912,0.66145 -0.34178,0.36381 -0.68094,0.66146 -0.7537,0.66146 -0.0728,0 0.14734,-0.29765 0.48912,-0.66146 z m -37.83542,-0.47819 c -1.41571,-0.44623 -3.52981,-2.70548 -3.95356,-4.22502 -1.00509,-3.60418 0.91852,-7.24176 4.38055,-8.28367 1.835,-0.55226 17.97151,-0.54029 19.83176,0.0147 3.72532,1.11142 5.73518,5.5903 4.06076,9.0492 -0.69022,1.4258 -2.53218,3.07108 -3.89549,3.47953 -1.3831,0.41439 -19.09468,0.38425 -20.42402,-0.0348 z m -118.942664,-1.04316 -1.045884,-1.12448 1.124479,1.04588 c 0.618463,0.57524 1.124479,1.08126 1.124479,1.12448 0,0.20018 -0.230412,-1.3e-4 -1.203074,-1.04588 z m 161.011414,-2.4474 c 0.79042,-0.80036 1.49666,-1.4552 1.56942,-1.4552 0.0728,0 -0.51442,0.65484 -1.30484,1.4552 -0.79042,0.80037 -1.49666,1.45521 -1.56942,1.45521 -0.0728,0 0.51442,-0.65484 1.30484,-1.45521 z m -166.437166,-2.97656 -0.911799,-0.99219 0.992187,0.9118 c 0.545703,0.50149 0.992188,0.94798 0.992188,0.99219 0,0.20204 -0.223896,0.0117 -1.072576,-0.9118 z M 205.0595,271.5606 c 0.34178,-0.36381 0.68094,-0.66146 0.7537,-0.66146 0.0728,0 -0.14734,0.29765 -0.48911,0.66146 -0.34178,0.3638 -0.68094,0.66145 -0.7537,0.66145 -0.0728,0 0.14734,-0.29765 0.48911,-0.66145 z m -172.792947,-0.8599 -0.641432,-0.7276 0.727605,0.64143 c 0.680055,0.59952 0.848939,0.81377 0.641432,0.81377 -0.04739,0 -0.374814,-0.32742 -0.727605,-0.7276 z M 206.647,269.74091 c 0,-0.0549 0.20836,-0.2633 0.46302,-0.46302 0.41965,-0.32911 0.42901,-0.31975 0.0999,0.0999 -0.34564,0.44073 -0.56292,0.58089 -0.56292,0.36313 z m -176.10535,-1.02458 -0.504029,-0.59532 0.595313,0.50403 c 0.559445,0.47366 0.715761,0.6866 0.504028,0.6866 -0.05021,0 -0.318098,-0.26789 -0.595312,-0.59531 z m 50.362119,-0.39672 c 4.256485,-0.0409 11.221641,-0.0409 15.478126,0 4.256485,0.0409 0.773906,0.0743 -7.739063,0.0743 -8.512969,0 -11.995547,-0.0334 -7.739063,-0.0743 z m -8.979297,-0.24704 c 0.190995,-0.0764 0.4192,-0.067 0.507119,0.0209 0.08792,0.0879 -0.06835,0.15045 -0.347266,0.13897 -0.308226,-0.0127 -0.370919,-0.0754 -0.159853,-0.15986 z m 136.045448,0.0808 c 0,-0.0549 0.20836,-0.2633 0.46302,-0.46302 0.41965,-0.32911 0.429,-0.31975 0.0999,0.0999 -0.34565,0.44073 -0.56292,0.58089 -0.56292,0.36313 z M 68.915797,267.04808 c -0.48427,-0.38797 -0.475827,-0.39348 0.147867,-0.0965 0.809898,0.38571 0.959999,0.50792 0.623835,0.50792 -0.141962,0 -0.489228,-0.18516 -0.771702,-0.41147 z m -3.713729,-3.09425 -0.504029,-0.59532 0.595313,0.50403 c 0.559445,0.47366 0.715761,0.6866 0.504028,0.6866 -0.05021,0 -0.318098,-0.26789 -0.595312,-0.59531 z m 46.856392,-0.19844 c 0.26339,-0.29104 0.53842,-0.52917 0.61118,-0.52917 0.0728,0 -0.0832,0.23813 -0.3466,0.52917 -0.26339,0.29104 -0.53842,0.52916 -0.61118,0.52916 -0.0728,0 0.0832,-0.23812 0.3466,-0.52916 z m 2.55531,-6.35 c 0,-0.3638 0.0601,-0.51263 0.13346,-0.33073 0.0734,0.1819 0.0734,0.47956 0,0.66146 -0.0734,0.1819 -0.13346,0.0331 -0.13346,-0.33073 z m 62.3999,-1.48198 c -6.81501,-1.82093 -8.92127,-10.57819 -3.67805,-15.2923 2.5475,-2.29042 2.43831,-2.27572 16.90722,-2.27572 12.13289,0 12.74267,0.0234 14.12894,0.54206 1.93104,0.72249 3.8933,2.59458 4.83973,4.61731 0.97871,2.09173 1.05756,5.3903 0.1747,7.30843 -1.15622,2.51205 -3.44836,4.43914 -6.1022,5.13038 -2.19368,0.57138 -24.11319,0.54622 -26.27034,-0.0302 z m -62.42078,-0.25986 c 0.0127,-0.30823 0.0754,-0.37092 0.15985,-0.15986 0.0764,0.191 0.067,0.41921 -0.0209,0.50712 -0.0879,0.0879 -0.15045,-0.0683 -0.13896,-0.34726 z m -3.47472,-7.45243 -0.9118,-0.99219 0.99219,0.9118 c 0.54571,0.50149 0.99219,0.94797 0.99219,0.99219 0,0.20204 -0.2239,0.0117 -1.07258,-0.9118 z m -44.964922,0.0661 c 0.341775,-0.3638 0.680939,-0.66146 0.7537,-0.66146 0.07276,0 -0.147341,0.29766 -0.489117,0.66146 -0.341776,0.3638 -0.68094,0.66146 -0.7537,0.66146 -0.07276,0 0.147341,-0.29766 0.489117,-0.66146 z m 8.400521,-3.50102 c 0.618463,-0.0557 1.630495,-0.0557 2.248958,0 0.618464,0.0557 0.112448,0.10128 -1.124479,0.10128 -1.236927,0 -1.742943,-0.0456 -1.124479,-0.10128 z m 24.870834,-0.002 c 0.909507,-0.0517 2.397787,-0.0517 3.307287,0 0.90951,0.0517 0.16537,0.0939 -1.65364,0.0939 -1.819012,0 -2.563152,-0.0423 -1.653647,-0.0939 z m -3.936354,-1.06092 c -0.329108,-0.41965 -0.319749,-0.429 0.0999,-0.0999 0.254661,0.19972 0.46302,0.40808 0.46302,0.46302 0,0.21777 -0.217273,0.0776 -0.562916,-0.36312 z m -0.9632,-2.4474 c 0,-0.50932 0.05445,-0.71768 0.121002,-0.46302 0.06655,0.25466 0.06655,0.67138 0,0.92604 -0.06655,0.25467 -0.121002,0.0463 -0.121002,-0.46302 z m -55.954615,-3.87939 c 0.181901,-0.0734 0.479557,-0.0734 0.661458,0 0.181902,0.0734 0.03307,0.13345 -0.330729,0.13345 -0.363802,0 -0.51263,-0.06 -0.330729,-0.13345 z m 64.574876,-0.006 c 0.19099,-0.0764 0.4192,-0.067 0.50712,0.0209 0.0879,0.0879 -0.0684,0.15045 -0.34727,0.13897 -0.30823,-0.0127 -0.37092,-0.0754 -0.15985,-0.15986 z M 34.369496,235.5107 c -0.329107,-0.41965 -0.319749,-0.42901 0.0999,-0.0999 0.254662,0.19972 0.463021,0.40808 0.463021,0.46302 0,0.21776 -0.217273,0.0776 -0.562917,-0.36312 z M 108.222,235.0481 c 0.34177,-0.36381 0.68094,-0.66146 0.7537,-0.66146 0.0728,0 -0.14734,0.29765 -0.48912,0.66146 -0.34177,0.3638 -0.68094,0.66145 -0.7537,0.66145 -0.0728,0 0.14734,-0.29765 0.48912,-0.66145 z m -74.910837,-0.59532 c -0.329107,-0.41964 -0.319749,-0.429 0.0999,-0.0999 0.254661,0.19972 0.463021,0.40808 0.463021,0.46302 0,0.21776 -0.217273,0.0776 -0.562917,-0.36313 z m -1.797444,-3.66007 c 0.0127,-0.30822 0.07539,-0.37092 0.15985,-0.15985 0.07643,0.191 0.06703,0.4192 -0.02088,0.50712 -0.08792,0.0879 -0.150453,-0.0684 -0.138965,-0.34727 z m -0.224089,-1.69774 c 0,-0.50932 0.05445,-0.71768 0.121002,-0.46302 0.06655,0.25466 0.06655,0.67138 0,0.92604 -0.06655,0.25466 -0.121002,0.0463 -0.121002,-0.46302 z m 79.61998,-0.26458 c 0,-0.36381 0.0601,-0.51263 0.13345,-0.33073 0.0734,0.1819 0.0734,0.47955 0,0.66146 -0.0734,0.1819 -0.13345,0.0331 -0.13345,-0.33073 z m -79.395891,-1.74184 c 0.0127,-0.30823 0.07539,-0.37092 0.15985,-0.15986 0.07643,0.191 0.06703,0.4192 -0.02088,0.50712 -0.08792,0.0879 -0.150453,-0.0684 -0.138965,-0.34726 z M 108.982,223.60487 c -0.32911,-0.41965 -0.31975,-0.42901 0.0999,-0.0999 0.25466,0.19972 0.46302,0.40808 0.46302,0.46302 0,0.21776 -0.21728,0.0776 -0.56292,-0.36312 z m -75.90167,0.11564 c 0,-0.0455 0.386953,-0.43249 0.859896,-0.85989 l 0.859895,-0.77711 -0.777105,0.8599 c -0.724371,0.80154 -0.942686,0.98151 -0.942686,0.7771 z m 5.490104,-3.26744 c 0.181901,-0.0734 0.479557,-0.0734 0.661458,0 0.181902,0.0734 0.03307,0.13346 -0.330729,0.13346 -0.363802,0 -0.51263,-0.0601 -0.330729,-0.13346 z m 64.822916,0 c 0.1819,-0.0734 0.47956,-0.0734 0.66146,0 0.1819,0.0734 0.0331,0.13346 -0.33073,0.13346 -0.3638,0 -0.51263,-0.0601 -0.33073,-0.13346 z m -58.40677,-1.27998 c 0.341776,-0.3638 0.68094,-0.66145 0.7537,-0.66145 0.07276,0 -0.147341,0.29765 -0.489116,0.66145 -0.341776,0.36381 -0.68094,0.66146 -0.753701,0.66146 -0.07276,0 0.147342,-0.29765 0.489117,-0.66146 z M 5.8491334,218.62188 c 0.012695,-0.30823 0.075391,-0.37092 0.1598525,-0.15985 0.07643,0.19099 0.067031,0.4192 -0.020889,0.50712 -0.087919,0.0879 -0.150453,-0.0684 -0.1389645,-0.34727 z m 40.2571636,-1.96233 c 0,-0.50932 0.05445,-0.71768 0.121002,-0.46302 0.06655,0.25466 0.06655,0.67138 0,0.92604 -0.06655,0.25467 -0.121002,0.0463 -0.121002,-0.46302 z M 5.0553834,214.65313 c 0.012695,-0.30823 0.075391,-0.37092 0.1598525,-0.15985 0.076431,0.19099 0.067031,0.4192 -0.020889,0.50712 -0.087919,0.0879 -0.150453,-0.0684 -0.1389645,-0.34727 z m 39.9111706,-0.57326 -0.641432,-0.72761 0.727604,0.64143 c 0.680056,0.59952 0.848939,0.81378 0.641432,0.81378 -0.04739,0 -0.374814,-0.32742 -0.727604,-0.7276 z M 4.7908,213.06563 c 0.012695,-0.30823 0.075391,-0.37092 0.1598526,-0.15985 0.07643,0.19099 0.067031,0.4192 -0.020889,0.50712 -0.087919,0.0879 -0.1504529,-0.0684 -0.1389636,-0.34727 z m 24.651509,-0.0437 c 2.582995,-0.0433 6.809714,-0.0433 9.392708,0 2.582995,0.0433 0.469636,0.0788 -4.696354,0.0788 -5.16599,0 -7.279349,-0.0354 -4.696354,-0.0788 z m 33.866668,0.005 c 0.545703,-0.0571 1.438672,-0.0571 1.984375,0 0.545703,0.0571 0.09922,0.10378 -0.992188,0.10378 -1.091406,0 -1.53789,-0.0467 -0.992187,-0.10378 z m -58.7827603,-1.5491 c 0.012695,-0.30823 0.075391,-0.37092 0.1598525,-0.15985 0.07643,0.19099 0.067031,0.4192 -0.020889,0.50712 -0.087919,0.0879 -0.150453,-0.0684 -0.1389645,-0.34727 z M 233.65539,210.68438 c 0.0127,-0.30823 0.0754,-0.37092 0.15985,-0.15985 0.0764,0.19099 0.067,0.4192 -0.0209,0.50712 -0.0879,0.0879 -0.15045,-0.0684 -0.13897,-0.34727 z M 4.2825217,209.5158 c 0,-0.3638 0.060053,-0.51263 0.1334521,-0.33073 0.073399,0.1819 0.073399,0.47956 0,0.66146 -0.073399,0.1819 -0.1334521,0.0331 -0.1334521,-0.33073 z m 66.6541153,-0.6835 c 0.0127,-0.30823 0.07539,-0.37092 0.15985,-0.15986 0.07643,0.191 0.06703,0.4192 -0.02087,0.50712 -0.08792,0.0879 -0.150453,-0.0684 -0.138965,-0.34726 z m 163.004223,-0.11025 c 0,-0.3638 0.0601,-0.51263 0.13346,-0.33073 0.0734,0.1819 0.0734,0.47956 0,0.66146 -0.0734,0.1819 -0.13346,0.0331 -0.13346,-0.33073 z M 19.912546,207.66372 c 0,-0.50932 0.05445,-0.71768 0.121002,-0.46302 0.06655,0.25466 0.06655,0.67138 0,0.92604 -0.06655,0.25466 -0.121002,0.0463 -0.121002,-0.46302 z M 3.99705,207.77396 c 0.012695,-0.30822 0.075391,-0.37092 0.1598525,-0.15985 0.07643,0.19099 0.067031,0.4192 -0.020889,0.50712 -0.087919,0.0879 -0.150453,-0.0684 -0.1389645,-0.34727 z m 67.20417,-0.26458 c 0.0127,-0.30823 0.07539,-0.37092 0.159851,-0.15985 0.07643,0.19099 0.06703,0.4192 -0.02088,0.50712 -0.08792,0.0879 -0.150453,-0.0684 -0.138964,-0.34727 z m 163.01403,-1.03629 c 0.005,-0.43656 0.0647,-0.58312 0.13177,-0.32569 0.0671,0.25743 0.0627,0.61462 -0.01,0.79375 -0.0725,0.17913 -0.12736,-0.0315 -0.12197,-0.46806 z M 70.936637,206.18646 c 0.0127,-0.30822 0.07539,-0.37092 0.15985,-0.15985 0.07643,0.19099 0.06703,0.4192 -0.02087,0.50712 -0.08792,0.0879 -0.150453,-0.0683 -0.138965,-0.34727 z M 3.7324667,205.39271 c 0.012695,-0.30822 0.075391,-0.37092 0.1598525,-0.15985 0.07643,0.19099 0.067031,0.4192 -0.020889,0.50712 -0.087919,0.0879 -0.1504529,-0.0684 -0.1389635,-0.34727 z M 234.44914,204.0698 c 0.0127,-0.30823 0.0754,-0.37092 0.15985,-0.15986 0.0764,0.191 0.067,0.4192 -0.0209,0.50712 -0.0879,0.0879 -0.15045,-0.0683 -0.13897,-0.34726 z M 68.402206,202.88327 c -0.436562,-0.27964 -0.658111,-0.50906 -0.492331,-0.50983 0.165777,-7.9e-4 0.582496,0.23278 0.926041,0.51898 0.786623,0.65532 0.597411,0.65133 -0.43371,-0.009 z M 3.4887716,202.37205 c 0,-0.3638 0.060053,-0.51263 0.1334522,-0.33073 0.073399,0.1819 0.073399,0.47956 0,0.66146 -0.073399,0.1819 -0.1334522,0.0331 -0.1334522,-0.33073 z m 31.8869824,-0.46291 c 5.700869,-0.0398 15.106807,-0.0398 20.902084,-4e-5 5.795278,0.0398 1.13093,0.0723 -10.365216,0.0724 -11.496146,2e-5 -16.237737,-0.0325 -10.536868,-0.0723 z m 199.368666,-1.78605 c 0.005,-0.43656 0.0647,-0.58312 0.13177,-0.32569 0.0671,0.25743 0.0627,0.61462 -0.01,0.79375 -0.0725,0.17913 -0.12736,-0.0315 -0.12197,-0.46806 z M 3.2692323,196.41893 c 0.00116,-1.01865 0.048996,-1.40295 0.106272,-0.854 0.057276,0.54895 0.056316,1.38239 -0.00214,1.85208 -0.058441,0.4697 -0.1053026,0.0206 -0.1041289,-0.99808 z m 103.5637077,1.52142 12.23698,-0.0715 v -10.31611 -10.31611 l -11.84011,-0.0631 -11.840103,-0.0631 10.847913,-0.0735 c 12.99385,-0.0881 17.43103,0.13388 19.31942,0.96631 3.08526,1.36002 5.02321,3.53633 5.99344,6.73058 1.76336,5.80549 -2.06852,12.01292 -8.09739,13.11731 -1.03071,0.18881 -6.25618,0.2658 -15.21354,0.22415 l -13.643593,-0.0634 z M 93.620306,197.6934 c 0.190995,-0.0764 0.419201,-0.067 0.507119,0.0209 0.08792,0.0879 -0.06835,0.15045 -0.347266,0.13897 -0.308226,-0.0127 -0.370919,-0.0754 -0.159853,-0.15985 z m -4.732917,-2.66354 -0.641432,-0.7276 0.727604,0.64143 c 0.680056,0.59952 0.848939,0.81378 0.641432,0.81378 -0.04739,0 -0.374814,-0.32742 -0.727604,-0.72761 z M 3.2692323,191.65643 c 0.00116,-1.01865 0.048996,-1.40295 0.106272,-0.854 0.057276,0.54895 0.056316,1.38239 -0.00214,1.85208 -0.05845,0.4697 -0.1053116,0.0206 -0.1041379,-0.99808 z M 86.017887,189.7823 c 0.0127,-0.30823 0.07539,-0.37092 0.159851,-0.15986 0.07643,0.191 0.06703,0.4192 -0.02088,0.50712 -0.08792,0.0879 -0.150452,-0.0684 -0.138964,-0.34726 z m -0.218749,-2.09462 c 0.0029,-0.58209 0.05712,-0.78906 0.120406,-0.45994 0.06329,0.32912 0.06088,0.80537 -0.0053,1.05833 -0.06622,0.25297 -0.118004,-0.0163 -0.115068,-0.59839 z m 148.945282,0.26458 c 0.005,-0.43656 0.0647,-0.58313 0.13177,-0.32569 0.0671,0.25743 0.0627,0.61462 -0.01,0.79375 -0.0725,0.17913 -0.12736,-0.0315 -0.12197,-0.46806 z M 3.5137187,186.10018 c 0.00294,-0.58209 0.05712,-0.78906 0.120406,-0.45994 0.063286,0.32912 0.060884,0.80537 -0.00534,1.05833 -0.066223,0.25297 -0.1180033,-0.0163 -0.115066,-0.59839 z m 82.5041683,-0.55122 c 0.0127,-0.30822 0.07539,-0.37092 0.159851,-0.15985 0.07643,0.19099 0.06703,0.4192 -0.02088,0.50712 -0.08792,0.0879 -0.150452,-0.0684 -0.138964,-0.34727 z m 148.431253,-1.5875 c 0.0127,-0.30822 0.0754,-0.37092 0.15985,-0.15985 0.0764,0.19099 0.067,0.4192 -0.0209,0.50712 -0.0879,0.0879 -0.15045,-0.0684 -0.13897,-0.34727 z M 3.7324667,183.16771 c 0.012695,-0.30822 0.075391,-0.37092 0.1598525,-0.15985 0.07643,0.19099 0.067031,0.4192 -0.020889,0.50712 -0.087919,0.0879 -0.1504529,-0.0684 -0.1389635,-0.34727 z M 234.18456,181.31563 c 0.0127,-0.30823 0.0754,-0.37092 0.15985,-0.15985 0.0764,0.19099 0.067,0.4192 -0.0209,0.50711 -0.0879,0.0879 -0.15045,-0.0684 -0.13896,-0.34726 z m -146.335478,0.0544 c 0,-0.0549 0.208359,-0.2633 0.463021,-0.46302 0.419645,-0.32911 0.429003,-0.31975 0.0999,0.0999 -0.345644,0.44073 -0.562917,0.58088 -0.562917,0.36312 z m -83.8311437,-0.9584 c 0,-0.3638 0.060053,-0.51263 0.1334522,-0.33072 0.073399,0.1819 0.073399,0.47955 0,0.66145 -0.073399,0.18191 -0.1334522,0.0331 -0.1334522,-0.33073 z m 0.2743872,-1.98437 c 0.00539,-0.43656 0.06469,-0.58313 0.1317737,-0.32569 0.067083,0.25743 0.062672,0.61461 -0.0098,0.79375 -0.072477,0.17913 -0.1273631,-0.0315 -0.1219709,-0.46806 z m 89.8571475,-1.10678 c 0.190994,-0.0764 0.4192,-0.067 0.507119,0.0209 0.08792,0.0879 -0.06835,0.15046 -0.347266,0.13897 -0.308226,-0.0127 -0.370919,-0.0754 -0.159853,-0.15985 z M 4.5262167,176.55313 c 0.012695,-0.30823 0.075391,-0.37092 0.1598525,-0.15985 0.07643,0.19099 0.067031,0.4192 -0.020889,0.50711 -0.087919,0.0879 -0.150453,-0.0683 -0.1389645,-0.34726 z M 4.7908,174.96563 c 0.012695,-0.30823 0.075391,-0.37092 0.1598526,-0.15985 0.07643,0.19099 0.067031,0.4192 -0.020889,0.50711 -0.087919,0.0879 -0.1504529,-0.0684 -0.1389636,-0.34726 z m 0.2645834,-1.5875 c 0.012695,-0.30823 0.075391,-0.37092 0.1598525,-0.15985 0.076431,0.19099 0.067031,0.4192 -0.020889,0.50711 -0.087919,0.0879 -0.150453,-0.0684 -0.1389645,-0.34726 z m 0.2645833,-1.32292 c 0.012695,-0.30822 0.075391,-0.37092 0.1598526,-0.15985 0.07643,0.19099 0.067031,0.4192 -0.020889,0.50712 -0.087919,0.0879 -0.1504529,-0.0684 -0.1389636,-0.34727 z m 0.5291667,-2.64583 c 0.012695,-0.30823 0.075391,-0.37092 0.1598525,-0.15985 0.07643,0.19099 0.067031,0.4192 -0.020889,0.50711 -0.087919,0.0879 -0.150453,-0.0684 -0.1389645,-0.34726 z m 197.0937066,-17.3041 -24.20938,-0.13635 -1.49768,-0.73549 c -2.95335,-1.45033 -4.57318,-4.04302 -4.58226,-7.33431 -0.005,-1.64573 0.12123,-2.24239 0.73698,-3.49632 1.43788,-2.92809 3.80359,-4.31635 7.8579,-4.61122 1.73917,-0.12649 2.38222,-0.2858 2.84287,-0.70429 0.58493,-0.53139 0.76592,-1.5482 0.43096,-2.42111 -0.24757,-0.64516 -1.52646,-1.20247 -2.75938,-1.20247 -0.89585,0 -1.2635,-0.16558 -1.99751,-0.89959 -0.77715,-0.77714 -0.89959,-1.07523 -0.89959,-2.19008 0,-0.74121 0.17577,-1.54145 0.41294,-1.88006 0.92766,-1.32443 1.34242,-1.38027 10.25042,-1.38027 8.21695,0 8.31828,0.007 9.20741,0.60498 1.79507,1.20797 1.89118,3.65153 0.1996,5.0749 -0.67663,0.56936 -1.06188,0.6707 -2.56202,0.67402 -2.04281,0.005 -2.94561,0.37491 -3.4432,1.41267 -0.41546,0.86648 -0.0352,2.13113 0.77041,2.56229 0.28526,0.15267 5.50597,0.25447 13.04972,0.25447 h 12.57423 l 1.34055,2.4474 c 1.51084,2.7583 3.95992,7.75763 4.9346,10.07306 0.81123,1.92711 1.69656,4.16841 1.61409,4.08621 -0.0343,-0.0341 -10.95651,-0.12344 -24.27166,-0.19844 z m -72.56768,-4.05929 c -2.30895,-0.71821 -3.89691,-2.83845 -3.89691,-5.20315 0,-2.31488 1.02541,-4.05969 2.97275,-5.0583 0.90561,-0.46441 1.66996,-0.50986 9.12812,-0.54282 7.83224,-0.0346 8.18166,-0.0146 9.24891,0.53016 1.86878,0.95384 3.00357,2.78816 3.02875,4.8958 0.0303,2.53262 -1.72324,4.82917 -4.15471,5.44142 -1.58683,0.39957 -15.00621,0.3477 -16.32691,-0.0631 z M 42.555721,135.25173 c 0.190994,-0.0764 0.419198,-0.067 0.507119,0.0209 0.08792,0.0879 -0.06835,0.15046 -0.347266,0.13897 -0.308226,-0.0127 -0.370919,-0.0754 -0.159853,-0.15985 z m 36.633291,-0.003 c 0.257432,-0.0671 0.61462,-0.0627 0.79375,0.01 0.179131,0.0725 -0.03149,0.12736 -0.468056,0.12197 -0.436562,-0.005 -0.583125,-0.0647 -0.325694,-0.13178 z m -40.586182,-1.6022 c -0.329108,-0.41965 -0.319749,-0.429 0.0999,-0.0999 0.440729,0.34565 0.580887,0.56292 0.363125,0.56292 -0.05494,0 -0.263301,-0.20836 -0.463021,-0.46302 z m 174.36679,-4.8479 c -5.82334,-0.61784 -10.11595,-4.09892 -11.50979,-9.33382 -0.38468,-1.44476 -0.45126,-4.88589 -0.11595,-5.99276 0.17087,-0.56404 -0.0181,-0.898 -1.28314,-2.26753 -0.81594,-0.88333 -0.0783,-0.16896 1.63924,1.5875 3.27252,3.34671 7.74256,8.51837 10.07835,11.66024 2.00017,2.69043 3.39348,4.63539 3.29173,4.59501 -0.0488,-0.0193 -0.99397,-0.13124 -2.10044,-0.24864 z M 86.333644,127.75955 c 0,-0.65484 0.0516,-0.92273 0.114662,-0.59531 0.06307,0.32742 0.06307,0.8632 0,1.19062 -0.06306,0.32742 -0.114662,0.0595 -0.114662,-0.59531 z m -48.226231,-5.42396 c 0.341776,-0.3638 0.68094,-0.66146 0.7537,-0.66146 0.07276,0 -0.147341,0.29766 -0.489116,0.66146 -0.341776,0.3638 -0.68094,0.66146 -0.7537,0.66146 -0.07276,0 0.147341,-0.29766 0.489116,-0.66146 z m -8.466667,-2.08427 c 0,-0.0549 0.20836,-0.2633 0.463021,-0.46302 0.419645,-0.32911 0.429003,-0.31975 0.0999,0.0999 -0.345644,0.44072 -0.562917,0.58088 -0.562917,0.36312 z m 22.158855,-0.0984 c 5.12961,-0.0402 13.523516,-0.0402 18.653126,0 5.12961,0.0402 0.932656,0.073 -9.326563,0.073 -10.259219,0 -14.456172,-0.0329 -9.326563,-0.073 z m -20.571355,-1.75365 c 0,-0.0549 0.20836,-0.2633 0.463021,-0.46302 0.419645,-0.32911 0.429004,-0.31975 0.0999,0.0999 -0.345643,0.44073 -0.562917,0.58089 -0.562917,0.36313 z m 1.852084,-2.09957 c 0,-0.0455 0.386953,-0.43248 0.859896,-0.85989 l 0.859895,-0.77711 -0.777105,0.8599 c -0.724371,0.80154 -0.942686,0.98151 -0.942686,0.7771 z m 6.338943,-6.33335 c 0.648761,-0.69122 1.214308,-1.25677 1.256771,-1.25677 0.19867,0 -0.01138,0.23755 -1.179568,1.33397 l -1.256771,1.17957 z m 79.650647,-6.28385 v -7.143755 l 6.68073,0.0016 c 3.7304,7.94e-4 7.1104,0.120815 7.65368,0.271709 1.67672,0.465701 3.40967,1.849575 4.29645,3.430976 0.70974,1.2657 0.81601,1.71364 0.81601,3.43959 0,2.37125 -0.72701,4.05984 -2.34374,5.4437 -1.82632,1.56316 -2.65268,1.69994 -10.2711,1.69994 h -6.83203 z m -10.0742,5.09322 -0.64143,-0.7276 0.72761,0.64143 c 0.68005,0.59952 0.84893,0.81378 0.64143,0.81378 -0.0474,0 -0.37482,-0.32742 -0.72761,-0.72761 z m 87.04792,-1.32291 -0.64143,-0.72761 0.72761,0.64144 c 0.40018,0.35279 0.7276,0.68021 0.7276,0.7276 0,0.20751 -0.21426,0.0386 -0.81378,-0.64143 z M 42.737622,106.85747 c 0.26339,-0.29105 0.538422,-0.52917 0.611182,-0.52917 0.07276,0 -0.08321,0.23812 -0.346599,0.52917 -0.26339,0.29104 -0.538422,0.52916 -0.611182,0.52916 -0.07276,0 0.08321,-0.23812 0.346599,-0.52916 z m 151.316538,-1.12448 -0.50403,-0.59532 0.59531,0.50403 c 0.32742,0.27722 0.59531,0.54511 0.59531,0.59531 0,0.21174 -0.21293,0.0554 -0.68659,-0.50402 z m -149.86133,-0.0337 c 0,-0.0549 0.20836,-0.2633 0.463021,-0.46302 0.419645,-0.32911 0.429003,-0.31975 0.0999,0.0999 -0.345644,0.44073 -0.562917,0.58089 -0.562917,0.36313 z m 62.78554,-2.01677 c 0,-0.80037 0.0496,-1.12779 0.11022,-0.72761 0.0606,0.40018 0.0606,1.05503 0,1.45521 -0.0606,0.40018 -0.11022,0.0728 -0.11022,-0.7276 z m 85.34738,0.59531 c -0.32911,-0.41965 -0.31975,-0.42901 0.0999,-0.0999 0.44073,0.34565 0.58089,0.56292 0.36312,0.56292 -0.0549,0 -0.2633,-0.20836 -0.46302,-0.46302 z m -146.54542,0.0985 c 0,-0.0549 0.20836,-0.2633 0.463021,-0.46302 0.419645,-0.32911 0.429003,-0.31975 0.0999,0.0999 -0.345644,0.44073 -0.562917,0.58089 -0.562917,0.36313 z m 145.22251,-1.15688 c -0.32911,-0.41964 -0.31975,-0.429 0.0999,-0.0999 0.25466,0.19972 0.46302,0.40808 0.46302,0.46302 0,0.21776 -0.21727,0.0776 -0.56291,-0.36313 z m -143.899593,0.0985 c 0,-0.0549 0.208359,-0.2633 0.463021,-0.46303 0.419645,-0.3291 0.429003,-0.31974 0.0999,0.0999 -0.345644,0.44073 -0.562917,0.58089 -0.562917,0.36313 z m 63.694033,-6.018357 c 0.17947,-0.180822 0.39297,-0.262115 0.47443,-0.180652 0.0815,0.08146 -0.0654,0.229407 -0.32632,0.328766 -0.37708,0.143584 -0.40747,0.113194 -0.14811,-0.148114 z M 95.736973,80.482974 c 0.190995,-0.07643 0.4192,-0.06703 0.507119,0.02089 0.08792,0.08792 -0.06835,0.150453 -0.347266,0.138964 -0.308226,-0.01269 -0.370919,-0.07539 -0.159853,-0.159852 z m 4.216797,-0.788238 c 0.1819,-0.0734 0.47956,-0.0734 0.66146,0 0.1819,0.0734 0.0331,0.133452 -0.33073,0.133452 -0.363803,0 -0.512631,-0.06005 -0.33073,-0.133452 z m 1.86862,-0.270096 c 0.19099,-0.07643 0.4192,-0.06703 0.50712,0.02089 0.0879,0.08792 -0.0683,0.150453 -0.34727,0.138965 -0.30822,-0.0127 -0.37092,-0.07539 -0.15985,-0.159853 z m 34.39583,0 c 0.191,-0.07643 0.4192,-0.06703 0.50712,0.02089 0.0879,0.08792 -0.0683,0.150453 -0.34726,0.138965 -0.30823,-0.0127 -0.37092,-0.07539 -0.15986,-0.159853 z m -32.27916,-0.264583 c 0.19099,-0.07643 0.4192,-0.06703 0.50712,0.02089 0.0879,0.08792 -0.0684,0.150453 -0.34727,0.138964 -0.30823,-0.01269 -0.37092,-0.07539 -0.15985,-0.159852 z m 30.42708,0 c 0.191,-0.07643 0.4192,-0.06703 0.50712,0.02089 0.0879,0.08792 -0.0683,0.150453 -0.34727,0.138964 -0.30822,-0.01269 -0.37092,-0.07539 -0.15985,-0.159852 z M 105.64735,78.89286 c 0.25743,-0.06708 0.61462,-0.06267 0.79375,0.0098 0.17913,0.07248 -0.0315,0.127362 -0.46806,0.12197 -0.43656,-0.0054 -0.58312,-0.06469 -0.32569,-0.131774 z m 26.45833,0 c 0.25743,-0.06708 0.61462,-0.06267 0.79375,0.0098 0.17913,0.07248 -0.0315,0.127362 -0.46805,0.12197 -0.43657,-0.0054 -0.58313,-0.06469 -0.3257,-0.131774 z m -23.94983,-0.267954 c 0.32743,-0.06306 0.86321,-0.06306 1.19063,0 0.32742,0.06306 0.0595,0.114662 -0.59531,0.114662 -0.65485,0 -0.92274,-0.0516 -0.59532,-0.114662 z m 21.304,0.0034 c 0.25743,-0.06708 0.61462,-0.06267 0.79375,0.0098 0.17913,0.07248 -0.0315,0.127362 -0.46806,0.12197 -0.43656,-0.0054 -0.58312,-0.06469 -0.32569,-0.131774 z m -17.99307,-0.27109 c 0.40219,-0.06082 0.9975,-0.05919 1.32292,0.0036 0.32542,0.0628 -0.004,0.11256 -0.73124,0.110574 -0.72761,-0.002 -0.99386,-0.05337 -0.59168,-0.114186 z m 14.15157,0.0031 c 0.32743,-0.06306 0.86321,-0.06306 1.19063,0 0.32742,0.06307 0.0595,0.114663 -0.59531,0.114663 -0.65485,0 -0.92274,-0.0516 -0.59532,-0.114663 z m -8.46666,-0.264583 c 0.32742,-0.06306 0.8632,-0.06306 1.19062,0 0.32742,0.06306 0.0595,0.114662 -0.59531,0.114662 -0.65484,0 -0.92273,-0.0516 -0.59531,-0.114662 z m 2.51718,-0.0031 c 0.40218,-0.06082 0.99749,-0.05919 1.32291,0.0036 0.32543,0.0628 -0.004,0.11256 -0.73124,0.110574 -0.7276,-0.002 -0.99386,-0.05337 -0.59167,-0.114185 z"
           id="path887" />
        <path
           style="fill:#208ad7;stroke-width:0.264583"
           d="m 112.32304,309.52181 c -3.87392,-0.19508 -4.75884,-0.28336 -9.525,-0.95015 -12.240585,-1.71249 -24.62512,-5.5868 -35.857752,-11.21755 -1.742559,-0.87352 -3.16829,-1.64683 -3.16829,-1.71847 0,-0.0716 12.442031,-0.13025 27.648959,-0.13025 h 27.648963 v 7.14375 7.14375 l -1.52136,-0.0423 c -0.83674,-0.0233 -3.18823,-0.12622 -5.22552,-0.22881 z m 10.38798,0.0839 c 0.32912,-0.0633 0.80537,-0.0609 1.05834,0.005 0.25296,0.0662 -0.0163,0.118 -0.5984,0.11506 -0.58209,-0.003 -0.78906,-0.0571 -0.45994,-0.1204 z m 5.024,-0.25268 c 0.1819,-0.0734 0.47956,-0.0734 0.66146,0 0.1819,0.0734 0.0331,0.13345 -0.33073,0.13345 -0.3638,0 -0.51263,-0.06 -0.33073,-0.13345 z m 3.19154,-0.2701 c 0.19099,-0.0764 0.4192,-0.067 0.50712,0.0209 0.0879,0.0879 -0.0684,0.15045 -0.34727,0.13896 -0.30823,-0.0127 -0.37092,-0.0754 -0.15985,-0.15985 z m 62.22669,-26.1129 c 0,-0.0549 0.20836,-0.2633 0.46302,-0.46302 0.41965,-0.32911 0.42901,-0.31975 0.0999,0.0999 -0.34564,0.44073 -0.56292,0.58089 -0.56292,0.36313 z m 2.24896,-2.01677 c 0.26339,-0.29105 0.53842,-0.52917 0.61118,-0.52917 0.0728,0 -0.0832,0.23812 -0.3466,0.52917 -0.26339,0.29104 -0.53842,0.52916 -0.61118,0.52916 -0.0728,0 0.0832,-0.23812 0.3466,-0.52916 z m -30.75781,-0.99174 c 2.43747,-0.0437 6.42607,-0.0437 8.86354,0 2.43747,0.0437 0.44318,0.0794 -4.43177,0.0794 -4.87495,0 -6.86925,-0.0357 -4.43177,-0.0794 z m 33.66823,-1.6541 c 0.56839,-0.58208 1.09297,-1.05833 1.16573,-1.05833 0.0728,0 -0.33276,0.47625 -0.90115,1.05833 -0.56839,0.58209 -1.09297,1.05834 -1.16573,1.05834 -0.0728,0 0.33276,-0.47625 0.90115,-1.05834 z m -16.80104,-0.13229 c 0.34177,-0.3638 0.68094,-0.66146 0.7537,-0.66146 0.0728,0 -0.14735,0.29766 -0.48912,0.66146 -0.34178,0.3638 -0.68094,0.66146 -0.7537,0.66146 -0.0728,0 0.14734,-0.29766 0.48912,-0.66146 z m -25.29285,-0.19844 -0.50403,-0.59531 0.59531,0.50403 c 0.32742,0.27721 0.59531,0.5451 0.59531,0.59531 0,0.21173 -0.21293,0.0554 -0.68659,-0.50403 z m 27.48157,-4.69635 c 0,-0.65485 0.0516,-0.92274 0.11467,-0.59531 0.0631,0.32742 0.0631,0.8632 0,1.19062 -0.0631,0.32742 -0.11467,0.0595 -0.11467,-0.59531 z m 19.6394,0 c 0.56839,-0.58209 1.09297,-1.05834 1.16573,-1.05834 0.0728,0 -0.33276,0.47625 -0.90115,1.05834 -0.56838,0.58208 -1.09296,1.05833 -1.16572,1.05833 -0.0728,0 0.33275,-0.47625 0.90114,-1.05833 z m -49.03843,0 c 0,-0.3638 0.0601,-0.51263 0.13345,-0.33073 0.0734,0.1819 0.0734,0.47956 0,0.66146 -0.0734,0.1819 -0.13345,0.0331 -0.13345,-0.33073 z M 31.684798,269.8408 C 16.950919,252.90328 7.4600774,231.82052 4.3793695,209.18507 L 4.2083217,207.9283 h 7.8089843 7.808983 l 0.264316,0.95728 c 0.55476,2.00917 2.213626,3.63213 4.17875,4.0883 0.553172,0.1284 5.216726,0.23631 10.363457,0.23978 l 9.357689,0.006 1.027207,1.02721 c 0.92152,0.92152 1.027206,1.16442 1.027206,2.36095 0,1.05135 -0.14609,1.50736 -0.689997,2.15376 -1.049718,1.24751 -1.58252,1.42812 -4.740963,1.60706 -2.632885,0.14916 -3.078924,0.25136 -4.573381,1.04789 -5.164215,2.7525 -6.250088,9.0905 -2.3055,13.45669 1.491139,1.65051 3.460792,2.49832 6.129639,2.6384 1.216298,0.0638 2.21143,0.19043 2.211406,0.28132 -2.6e-5,0.0909 -0.17862,1.09847 -0.396875,2.23906 -0.643662,3.36371 -0.497956,5.74133 0.578226,9.43558 1.614972,5.54375 6.563297,10.67294 12.12182,12.56488 1.921894,0.65414 5.501883,1.19129 7.947517,1.19244 l 2.126687,0.001 1.711833,1.67026 c 2.793159,2.72527 5.351605,3.62135 10.33965,3.62135 1.419894,0 2.644859,0.10231 2.722142,0.22736 0.182009,0.29449 -1.107967,2.01403 -1.96137,2.61451 -0.614222,0.43218 -2.195531,0.47487 -22.143025,0.59771 l -21.481564,0.13229 z m 77.727822,2.11667 c -8.36051,-0.11612 -9.627001,-0.18811 -10.359349,-0.5889 -0.80513,-0.44061 -1.943772,-1.93507 -1.943772,-2.55118 0,-0.20643 1.007171,-0.30072 3.241141,-0.30341 5.5015,-0.007 8.45893,-1.09043 11.31921,-4.14809 0.86858,-0.9285 1.57923,-1.77938 1.57923,-1.89083 0,-0.11145 0.58811,-0.41412 1.3069,-0.67259 0.71879,-0.25848 1.98676,-0.87935 2.8177,-1.37971 0.83094,-0.50037 1.55472,-0.86584 1.6084,-0.81215 0.0537,0.0537 0.0656,2.88345 0.0266,6.28837 l -0.071,6.19078 z m 96.57292,-1.5875 c 0.26339,-0.29104 0.53843,-0.52917 0.61119,-0.52917 0.0728,0 -0.0832,0.23813 -0.3466,0.52917 -0.26339,0.29104 -0.53842,0.52917 -0.61118,0.52917 -0.0728,0 0.0832,-0.23813 0.34659,-0.52917 z m -24.24312,-1.78594 c -0.32911,-0.41964 -0.31975,-0.429 0.0999,-0.0999 0.25467,0.19972 0.46303,0.40808 0.46303,0.46302 0,0.21776 -0.21728,0.0776 -0.56292,-0.36313 z m -3.98461,-12.41772 c 0.19099,-0.0764 0.4192,-0.067 0.50712,0.0209 0.0879,0.0879 -0.0683,0.15045 -0.34727,0.13896 -0.30822,-0.0127 -0.37092,-0.0754 -0.15985,-0.15985 z m 24.60625,0 c 0.19099,-0.0764 0.4192,-0.067 0.50712,0.0209 0.0879,0.0879 -0.0684,0.15045 -0.34727,0.13896 -0.30822,-0.0127 -0.37092,-0.0754 -0.15985,-0.15985 z m 4.28294,-1.75413 c 0,-0.0455 0.38696,-0.43249 0.8599,-0.8599 l 0.85989,-0.7771 -0.7771,0.8599 c -0.72437,0.80154 -0.94269,0.98151 -0.94269,0.7771 z m -36.45112,-7.06096 c 0,-0.50932 0.0545,-0.71768 0.12101,-0.46302 0.0665,0.25466 0.0665,0.67138 0,0.92604 -0.0666,0.25466 -0.12101,0.0463 -0.12101,-0.46302 z m 2.31987,-6.18531 c 0,-0.0549 0.20836,-0.2633 0.46302,-0.46302 0.41965,-0.32911 0.42901,-0.31975 0.0999,0.0999 -0.34565,0.44073 -0.56292,0.58089 -0.56292,0.36313 z m 7.60677,-3.00698 c 1.05503,-0.0502 2.78144,-0.0502 3.83646,0 1.05503,0.0502 0.19182,0.0913 -1.91823,0.0913 -2.11005,0 -2.97325,-0.0411 -1.91823,-0.0913 z m 3.7912,-5.51413 c 0.0127,-0.30823 0.0754,-0.37092 0.15985,-0.15986 0.0764,0.191 0.067,0.4192 -0.0209,0.50712 -0.0879,0.0879 -0.15045,-0.0684 -0.13897,-0.34726 z m -65.50526,-5.30511 c -1.41965,-1.11481 -6.39191,-3.00722 -7.90138,-3.00722 -0.28279,0 -1.12971,-0.58217 -1.88205,-1.2937 -0.75235,-0.71153 -1.89494,-1.57474 -2.53911,-1.91823 l -1.17121,-0.62453 -21.16667,-0.13229 c -19.263599,-0.1204 -21.240447,-0.1727 -21.987273,-0.58179 -1.669404,-0.91444 -2.341888,-2.89387 -1.550056,-4.56253 0.70762,-1.4912 1.459156,-1.8417 4.367975,-2.03713 3.475273,-0.23349 4.980437,-1.03406 6.147149,-3.26959 1.473759,-2.82386 -0.09672,-6.56049 -3.22054,-7.66264 -0.995259,-0.35115 -3.62422,-0.40715 -19.112397,-0.40715 -9.877122,0 -17.956989,-0.0893 -17.955261,-0.19844 0.0019,-0.10914 0.178909,-0.85328 0.393734,-1.65365 0.484032,-1.80332 0.49452,-3.18282 0.03721,-4.89479 -0.754311,-2.82383 -2.17986,-4.80329 -4.647721,-6.45366 -2.359242,-1.57772 -2.671101,-1.61613 -13.1209,-1.61613 H 3.6320345 l 0.1729706,-2.63941 c 0.3325313,-5.07419 1.9705337,-14.73605 3.3600764,-19.81963 1.7348246,-6.34677 4.3047005,-13.54709 6.5954135,-18.47911 l 1.07811,-2.32123 7.334925,0.13229 c 6.516883,0.11754 7.424798,0.18674 8.140769,0.62043 2.774095,1.6804 2.779329,5.85646 0.0095,7.56832 -0.752528,0.46509 -1.314503,0.5425 -3.938117,0.5425 -5.204233,0 -8.77788,1.10979 -11.513222,3.5754 -1.64966,1.48699 -3.162498,3.74885 -3.890891,5.81731 -0.102488,0.29104 -0.34166,1.39338 -0.531493,2.44964 -0.775997,4.31775 0.989033,9.27339 4.392851,12.33371 1.406242,1.26434 3.951478,2.60727 5.816735,3.06905 0.816007,0.20203 7.087135,0.26789 20.490474,0.2152 17.785549,-0.0699 19.385877,-0.11259 20.215131,-0.53895 0.4953,-0.25466 1.007036,-0.46302 1.137187,-0.46302 0.130154,0 0.906942,-0.42879 1.726195,-0.95286 4.616183,-2.95293 7.002039,-8.19398 6.231107,-13.68796 -0.153408,-1.09324 -0.470752,-2.37225 -0.70521,-2.84222 -0.234442,-0.46998 -0.42627,-0.96993 -0.42627,-1.11099 0,-0.52679 -2.379044,-3.56542 -3.529677,-4.50828 -2.781673,-2.27937 -6.09363,-3.34331 -10.432767,-3.35143 -2.191462,-0.004 -2.563376,-0.0776 -3.487426,-0.6891 -1.002276,-0.66328 -2.129298,-2.48886 -2.129298,-3.4491 0,-1.86854 1.831475,-4.17232 3.548783,-4.46396 0.449265,-0.0763 7.127155,-0.1773 14.83976,-0.22445 15.545695,-0.095 14.769029,-0.0131 18.46258,-1.94749 1.961875,-1.02747 5.028907,-3.85255 5.759207,-5.30488 0.200967,-0.39967 0.568431,-1.02919 0.816586,-1.39896 1.067375,-1.59044 1.649606,-4.22166 1.636904,-7.39749 -0.01331,-3.32983 -0.262753,-4.36984 -1.808552,-7.54063 -1.725726,-3.53986 -5.196544,-6.42347 -9.366152,-7.78154 -1.666669,-0.54284 -2.098496,-0.55283 -23.896226,-0.55283 H 37.543083 l 2.305133,-2.18281 C 55.082829,95.275528 74.979938,84.920466 95.65429,80.658554 c 6.05315,-1.247826 15.9909,-2.365316 21.10052,-2.37273 l 2.31511,-0.0034 v 9.107626 9.107625 l -3.50573,0.08665 c -3.99139,0.09865 -4.74906,0.347504 -6.52783,2.144056 -2.05749,2.078049 -2.67715,5.242159 -1.51429,7.732169 0.87143,1.86597 1.82312,2.89585 3.40392,3.6836 l 1.36866,0.68203 10.06836,0.0614 c 8.07341,0.0492 8.74464,0.0763 3.38764,0.13683 l -6.68073,0.0754 v 32.924 32.92399 l 1.78593,0.0782 c 0.98227,0.043 -4.10765,0.0365 -11.31093,-0.0146 -8.74128,-0.062 -13.615518,0.003 -14.656381,0.19651 -4.657892,0.86422 -8.106474,4.27249 -8.892998,8.78905 -0.785911,4.51303 1.693243,9.11358 6.014045,11.16025 l 1.792621,0.84912 12.633853,0.0781 12.63386,0.0781 v 14.80469 c 0,8.14258 -0.0298,14.80091 -0.0661,14.79628 -0.0364,-0.005 -0.30427,-0.19541 -0.59531,-0.42395 z m 4.31601,-29.38171 c 0.191,-0.0764 0.4192,-0.067 0.50712,0.0209 0.0879,0.0879 -0.0683,0.15046 -0.34726,0.13897 -0.30823,-0.0127 -0.37092,-0.0754 -0.15986,-0.15985 z m 6.26732,-2.99426 c 0.26339,-0.29104 0.53842,-0.52917 0.61118,-0.52917 0.0728,0 -0.0832,0.23813 -0.34659,0.52917 -0.2634,0.29104 -0.53843,0.52917 -0.61119,0.52917 -0.0728,0 0.0832,-0.23813 0.3466,-0.52917 z m 1.8691,-2.72339 c 0.0993,-0.26094 0.2473,-0.40778 0.32876,-0.32632 0.0815,0.0815 1.7e-4,0.29495 -0.18065,0.47443 -0.26131,0.25936 -0.2917,0.22897 -0.14811,-0.14811 z m 61.16788,-40.0729 c 6.4393,-0.0394 16.97633,-0.0394 23.41563,0 6.4393,0.0395 1.17078,0.0717 -11.70781,0.0717 -12.8786,0 -18.14711,-0.0323 -11.70782,-0.0717 z m -64.24763,-5.55632 -0.64143,-0.7276 0.7276,0.64143 c 0.40018,0.35279 0.72761,0.68021 0.72761,0.7276 0,0.20751 -0.21426,0.0386 -0.81378,-0.64143 z m 21.31899,0.19844 c 0.26339,-0.29104 0.53842,-0.52917 0.61118,-0.52917 0.0728,0 -0.0832,0.23813 -0.3466,0.52917 -0.26339,0.29104 -0.53842,0.52917 -0.61118,0.52917 -0.0728,0 0.0832,-0.23813 0.3466,-0.52917 z m -22.81974,-4.10104 c 0.003,-0.58208 0.0571,-0.78906 0.12041,-0.45994 0.0633,0.32912 0.0609,0.80537 -0.005,1.05834 -0.0662,0.25296 -0.118,-0.0163 -0.11507,-0.5984 z m 6.09282,-5.61876 c 0.69562,-0.0547 1.76718,-0.054 2.38125,0.002 0.61408,0.0555 0.0449,0.10023 -1.26475,0.0994 -1.30969,-8e-4 -1.81211,-0.0462 -1.1165,-0.10089 z m 11.37274,0.005 c 0.40218,-0.0608 0.9975,-0.0592 1.32292,0.004 0.32542,0.0628 -0.004,0.11256 -0.73124,0.11058 -0.72761,-0.002 -0.99386,-0.0534 -0.59168,-0.11419 z m 34.64222,-1.52993 c 0.005,-0.43656 0.0647,-0.58313 0.13177,-0.3257 0.0671,0.25744 0.0627,0.61462 -0.01,0.79375 -0.0725,0.17913 -0.12736,-0.0315 -0.12197,-0.46805 z m 1.20519,0.22164 c 0.1819,-0.0734 0.47955,-0.0734 0.66145,0 0.18191,0.0734 0.0331,0.13346 -0.33072,0.13346 -0.36381,0 -0.51263,-0.0601 -0.33073,-0.13346 z m 13.05161,-2.09577 c 0.0127,-0.30823 0.0754,-0.37092 0.15986,-0.15986 0.0764,0.191 0.067,0.4192 -0.0209,0.50712 -0.0879,0.0879 -0.15045,-0.0684 -0.13896,-0.34726 z m -57.41458,-2.38125 c 0.0127,-0.30823 0.0754,-0.37092 0.15985,-0.15986 0.0764,0.191 0.067,0.4192 -0.0209,0.50712 -0.0879,0.0879 -0.15045,-0.0684 -0.13896,-0.34726 z m 46.48272,0.23179 c 0.32912,-0.0633 0.80537,-0.0609 1.05833,0.005 0.25297,0.0662 -0.0163,0.11801 -0.5984,0.11507 -0.58208,-0.003 -0.78905,-0.0571 -0.45993,-0.1204 z m 13.49066,-0.004 c 0.47295,-0.0587 1.24685,-0.0587 1.7198,0 0.47294,0.0587 0.086,0.10671 -0.8599,0.10671 -0.94589,0 -1.33284,-0.048 -0.8599,-0.10671 z m -15.7017,-0.93308 -0.50403,-0.59531 0.59532,0.50403 c 0.32742,0.27721 0.59531,0.5451 0.59531,0.59531 0,0.21173 -0.21294,0.0554 -0.6866,-0.50403 z m 19.60431,0.0661 c 0.26339,-0.29105 0.53842,-0.52917 0.61118,-0.52917 0.0728,0 -0.0832,0.23812 -0.3466,0.52917 -0.26339,0.29104 -0.53842,0.52916 -0.61118,0.52916 -0.0728,0 0.0832,-0.23812 0.3466,-0.52916 z M 178.66255,128.289 c 0,-0.50933 0.0545,-0.71769 0.121,-0.46302 0.0666,0.25466 0.0666,0.67138 0,0.92604 -0.0665,0.25466 -0.121,0.0463 -0.121,-0.46302 z m 32.69734,0.34842 c 0.191,-0.0764 0.4192,-0.067 0.50712,0.0209 0.0879,0.0879 -0.0683,0.15045 -0.34726,0.13896 -0.30823,-0.0127 -0.37092,-0.0754 -0.15986,-0.15985 z m -28.59153,-3.71849 c 0.76398,-0.0534 2.01414,-0.0534 2.77812,0 0.76399,0.0534 0.13891,0.0972 -1.38906,0.0972 -1.52797,0 -2.15305,-0.0437 -1.38906,-0.0972 z m 18.12987,-8.53618 c 0,-0.65485 0.0516,-0.92274 0.11466,-0.59532 0.0631,0.32743 0.0631,0.86321 0,1.19063 -0.0631,0.32742 -0.11466,0.0595 -0.11466,-0.59531 z m -3.396,-7.47448 -0.7771,-0.8599 0.85989,0.77711 c 0.47295,0.4274 0.8599,0.81436 0.8599,0.85989 0,0.20441 -0.21832,0.0245 -0.94269,-0.7771 z m -2.53064,-2.24896 c -0.32911,-0.41965 -0.31975,-0.42901 0.0999,-0.0999 0.44073,0.34565 0.58089,0.56292 0.36313,0.56292 -0.0549,0 -0.2633,-0.20836 -0.46302,-0.46302 z m -1.85209,-1.5875 c -0.32911,-0.41965 -0.31975,-0.42901 0.0999,-0.0999 0.44073,0.34565 0.58089,0.56292 0.36312,0.56292 -0.0549,0 -0.2633,-0.20836 -0.46302,-0.46302 z M 163.18919,95.017895 c 2.21919,-0.04425 5.8506,-0.04425 8.06979,0 2.21919,0.04425 0.40349,0.08046 -4.0349,0.08046 -4.43838,0 -6.25408,-0.03621 -4.03489,-0.08046 z M 128.54531,78.63089 c 0.19099,-0.07643 0.4192,-0.06703 0.50712,0.02089 0.0879,0.08792 -0.0684,0.150453 -0.34727,0.138965 -0.30823,-0.0127 -0.37092,-0.07539 -0.15985,-0.159853 z m -4.37713,-0.267196 c 0.25743,-0.06708 0.61462,-0.06267 0.79375,0.0098 0.17913,0.07247 -0.0315,0.127361 -0.46806,0.121969 -0.43656,-0.0054 -0.58312,-0.06469 -0.32569,-0.131773 z"
           id="path885" />
        <path
           style="fill:#47c95e;stroke-width:0.264583"
           d="m 59.482755,293.25589 c -7.03112,-4.23392 -12.539877,-8.37561 -19.01193,-14.29389 -3.378113,-3.08907 -6.332162,-6.15754 -6.332162,-6.57744 0,-0.0894 9.391396,-0.16251 20.869773,-0.16251 22.721542,0 21.891822,0.0533 23.364958,-1.49968 0.390925,-0.4121 0.834462,-1.0767 0.98564,-1.47688 l 0.274867,-0.7276 h 8.479764 8.479764 l 0.232008,0.61023 c 0.386096,1.0155 1.615154,2.2965 2.596996,2.70674 0.754167,0.31511 2.669277,0.38719 10.287087,0.38719 h 9.3604 v 11.50699 11.50699 l -28.035601,0.0685 -28.035598,0.0685 z m -0.473258,-30.56794 c -3.310914,-0.32339 -6.604791,-1.51843 -9.377296,-3.40213 -2.803346,-1.90465 -5.817717,-5.97652 -6.974335,-9.42106 -1.038924,-3.09402 -1.269328,-7.21351 -0.588233,-10.51719 l 0.368195,-1.78593 H 60.12487 c 19.177159,0 18.840138,-0.0245 19.999918,1.44999 0.851072,1.08196 0.999326,2.35503 0.423069,3.63294 -0.721678,1.60039 -1.661769,2.05864 -4.225703,2.05983 -4.509085,0.002 -7.616201,1.13384 -10.134349,3.69139 -3.36169,3.41429 -4.368845,8.30823 -2.607308,12.66936 0.538002,1.33196 0.58296,1.62813 0.265624,1.74991 -0.463177,0.17773 -2.176688,0.1327 -4.836624,-0.12711 z m 55.051493,-2.09128 c 1.5557,-4.09426 0.4349,-9.12274 -2.74131,-12.29895 -2.68866,-2.68865 -5.42797,-3.58226 -11.00016,-3.58842 l -3.536858,-0.004 -1.027208,-1.02721 c -0.912336,-0.91233 -1.027094,-1.17123 -1.026216,-2.3151 0.0022,-2.85792 1.428271,-3.80144 5.745662,-3.80144 3.33897,0 4.98851,-0.3992 6.8433,-1.65611 1.45221,-0.98412 2.87335,-2.91842 3.31981,-4.51859 0.43478,-1.55829 0.37039,-4.09653 -0.13446,-5.30084 -0.23621,-0.56348 -0.42947,-1.12903 -0.42947,-1.25677 0,-0.81974 4.43208,0.57098 7.47448,2.34537 l 1.52136,0.88729 v 15.42444 c 0,14.35851 -0.032,15.45257 -0.46302,15.83145 -0.68627,0.60324 -3.34121,2.04601 -4.23863,2.30339 l -0.7818,0.22422 z M 4.1138577,207.33299 C 3.6977068,206.08495 3.3256849,197.14547 3.4086714,190.38775 l 0.038324,-3.12076 9.9880206,0.0781 9.988022,0.078 1.461672,0.68665 c 1.926611,0.90507 3.938453,2.90311 4.903235,4.8696 0.665284,1.35604 0.79086,1.95399 0.861261,4.10105 0.05506,1.67938 -0.04128,2.86476 -0.290325,3.57187 l -0.372742,1.05833 -2.884676,0.15612 c -3.069852,0.16614 -4.097996,0.50192 -5.487985,1.79232 -0.914257,0.84875 -1.369407,1.70216 -1.60665,3.0125 l -0.179645,0.99219 h -7.801522 c -6.0060138,0 -7.8269042,-0.0761 -7.9118033,-0.33073 z M 21.570954,179.76591 c -4.221382,-0.87564 -7.500878,-3.25322 -9.398701,-6.8139 -1.141031,-2.1408 -1.574594,-3.89615 -1.578367,-6.39028 -0.0071,-4.70776 2.26596,-8.87249 6.243992,-11.44022 2.171661,-1.40176 4.220113,-1.89886 8.474129,-2.05642 4.144589,-0.15352 5.156996,-0.4319 6.236586,-1.71492 1.465506,-1.74166 1.591302,-3.75724 0.351433,-5.63081 -1.309994,-1.97954 -1.811139,-2.08481 -9.924608,-2.08481 h -7.157244 l 1.094552,-2.18281 c 4.640344,-9.25401 10.949099,-18.20811 18.828039,-26.72292 l 2.631866,-2.84427 h 21.388743 c 14.074857,0 21.868189,0.0964 22.790831,0.28177 5.646822,1.13482 10.043636,4.82055 12.131191,10.16927 1.673476,4.28776 1.216525,9.38341 -1.213824,13.53586 -1.52283,2.60188 -4.817819,5.48616 -7.443142,6.5154 -3.020626,1.18421 -3.948888,1.2477 -18.241281,1.2477 -12.034925,0 -13.721458,0.05 -14.46952,0.42878 -1.865662,0.94474 -2.604384,2.12134 -2.62286,4.17758 -0.03109,3.45926 2.244585,4.90782 7.729228,4.91997 3.501838,0.008 6.340367,1.24903 9.006375,3.93843 5.247918,5.29396 5.324414,13.21976 0.180663,18.71845 -1.947085,2.08144 -4.826286,3.57355 -7.782796,4.03334 -2.782996,0.4328 -35.114522,0.35887 -37.255285,-0.0852 z m 59.658268,-44.77862 c 0.813988,-0.26289 1.895108,-0.90973 2.640283,-1.57971 4.141497,-3.72356 3.060877,-10.24712 -2.092397,-12.63153 -1.189714,-0.55048 -1.436097,-0.55713 -20.669653,-0.55713 H 41.641874 l -1.561243,0.79845 c -2.636121,1.34817 -4.089885,3.76237 -4.089885,6.79189 0,3.55582 2.308252,6.54836 5.688542,7.37495 0.436563,0.10675 9.203749,0.20628 19.48264,0.22117 16.837989,0.0244 18.825401,-0.017 20.067294,-0.41809 z"
           id="path883" />
        <path
           style="fill:#1565d2;stroke-width:0.264583"
           d="m 119.06992,302.64914 v -7.14375 l 2.44739,-0.009 c 6.67074,-0.0253 10.84175,-2.62424 12.85728,-8.01121 0.80259,-2.14512 0.79777,-5.63868 -0.0105,-7.62077 -1.37183,-3.36404 -3.25715,-5.37703 -6.43141,-6.86693 -1.12257,-0.5269 -1.88121,-0.64221 -5.0263,-0.76399 l -3.70416,-0.14343 -0.071,-6.31901 -0.071,-6.31902 2.31998,-2.41473 c 3.26427,-3.39759 4.73945,-6.40206 5.38587,-10.96926 0.3576,-2.52661 0.12554,-5.54485 -0.6235,-8.10923 -0.87957,-3.01127 -3.34816,-6.81288 -5.72591,-8.81782 l -1.34669,-1.13556 V 213.1073 198.20947 l 2.57968,-0.12505 c 1.85233,-0.0898 2.94145,-0.28534 3.86271,-0.69356 4.41331,-1.9556 6.72328,-5.69396 6.47122,-10.47276 -0.30925,-5.86312 -5.02784,-9.94605 -11.49452,-9.94605 h -1.41909 V 144.03143 111.0908 l 6.41614,-0.006 c 3.52888,-0.004 6.95193,-0.12965 7.60677,-0.28021 1.70612,-0.39227 3.43267,-1.60496 4.47134,-3.1406 0.77354,-1.14365 0.91733,-1.60835 1.02714,-3.31948 0.0967,-1.50722 0.0139,-2.28758 -0.34154,-3.21834 -0.6292,-1.64751 -2.09055,-3.212586 -3.70173,-3.964463 -1.28177,-0.598157 -1.54303,-0.617437 -8.40052,-0.61994 l -7.0776,-0.0026 v -9.166244 -9.166244 l 4.16718,0.183611 c 7.75289,0.341601 14.88689,1.273841 21.76022,2.843529 5.0501,1.15331 4.73671,0.969447 4.40581,2.584774 -0.20437,0.997655 -0.18833,1.770773 0.0619,2.982061 0.93377,4.520916 4.13627,7.575184 8.54271,8.147322 1.06719,0.138565 5.27884,0.255611 9.35923,0.260104 5.86711,0.0065 7.74815,-0.07759 8.99301,-0.401836 1.89427,-0.493392 1.73046,-0.566399 7.56292,3.370493 4.64369,3.134483 9.48944,6.986553 14.06538,11.181103 l 3.37978,3.0981 -0.20478,1.36817 c -0.80569,5.38299 1.12301,9.9683 5.44317,12.94064 1.76416,1.21378 4.36363,2.04145 6.43219,2.048 l 1.76138,0.006 2.13569,3.37343 2.13569,3.37344 -12.36323,0.0688 c -11.69836,0.0651 -12.39883,0.0423 -13.0252,-0.42316 -0.89458,-0.66484 -1.03899,-2.17905 -0.28017,-2.93787 0.43818,-0.43817 0.88107,-0.54424 2.27253,-0.54424 2.14301,0 3.39266,-0.5009 4.08576,-1.63772 0.63715,-1.04505 0.68033,-2.0791 0.1348,-3.22871 -0.76636,-1.61499 -1.01742,-1.66087 -10.04989,-1.83627 -7.59959,-0.14757 -8.2813,-0.1235 -9.28049,0.32773 -2.55105,1.15206 -2.53081,4.92932 0.0322,6.0002 0.49334,0.20612 1.32292,0.37477 1.84354,0.37477 1.14726,0 2.24543,0.9705 2.24543,1.98438 0,0.37703 -0.29225,0.97775 -0.64944,1.33494 -0.56113,0.56113 -0.8939,0.64992 -2.44739,0.65304 -0.98888,0.002 -2.04914,0.071 -2.35612,0.15344 -0.53256,0.14295 -0.56411,0.0359 -0.68807,-2.33387 -0.10473,-2.00215 -0.26914,-2.76289 -0.84802,-3.92375 -0.93811,-1.88122 -2.79941,-3.75794 -4.63593,-4.67434 l -1.47191,-0.73447 h -14.81667 -14.81666 l -1.45521,0.74506 c -2.00494,1.0265 -3.58742,2.64207 -4.58308,4.6789 -0.74365,1.52131 -0.84069,1.97935 -0.84078,3.96875 -6e-5,1.23693 0.0921,2.50079 0.20484,2.80859 0.198,0.54067 0.11736,0.56388 -2.38125,0.68524 -2.83525,0.13771 -3.70247,0.45102 -5.04273,1.82188 -1.66345,1.70141 -2.01153,4.31578 -0.8719,6.54868 0.62464,1.22386 1.18629,1.72896 2.67174,2.40275 1.10581,0.5016 1.71277,0.53813 8.99107,0.54114 7.72198,0.003 7.82,-0.004 9.19159,-0.64224 1.03455,-0.48166 1.5885,-0.96416 2.18282,-1.9013 0.43803,-0.69071 0.79643,-1.46665 0.79643,-1.72431 0,-0.4387 0.65152,-0.47393 10.2526,-0.5544 5.63893,-0.0473 10.50344,-0.17975 10.81001,-0.29442 0.52271,-0.19552 0.56582,-0.10375 0.69246,1.47388 0.076,0.9472 0.38084,2.16418 0.69753,2.78495 0.83726,1.64117 2.76182,3.39805 4.48535,4.09458 l 1.50476,0.60811 23.98112,0.0741 23.98112,0.0741 1.61732,4.8951 c 0.88952,2.69231 1.61731,5.01043 1.61731,5.15138 0,0.16398 -12.1735,0.2563 -33.80052,0.25633 -35.02544,4e-5 -35.16396,0.004 -38.66146,1.04009 -3.25021,0.96305 -7.44418,3.84625 -9.7757,6.72043 -3.69195,4.55123 -4.91838,8.03155 -4.91065,13.93526 0.004,3.23888 0.0996,4.14556 0.61236,5.82084 2.04412,6.67881 6.71413,11.8018 12.9818,14.24105 4.02863,1.56785 1.57848,1.47456 41.10969,1.56531 l 36.2149,0.0831 -0.17128,1.38182 c -0.0942,0.76 -0.36719,2.72127 -0.60664,4.35838 l -0.43536,2.97656 h -17.59969 c -19.37622,0 -19.34171,-0.003 -22.66057,1.65614 -2.78188,1.39029 -4.48269,2.93982 -6.31377,5.75219 -1.8406,2.827 -2.41063,4.85749 -2.41404,8.59896 -0.002,2.6878 0.0935,3.4389 0.62557,4.89479 0.34566,0.94589 0.74707,1.86862 0.89202,2.05052 0.20813,0.26118 -0.48055,0.33209 -3.27457,0.3372 -1.94597,0.004 -4.04907,0.12433 -4.67357,0.26838 -3.00378,0.69288 -5.17971,2.44734 -6.47914,5.22415 -1.58244,3.38161 -0.95911,7.10551 1.6661,9.95352 0.61071,0.66255 1.78224,1.53466 2.60339,1.93803 l 1.49301,0.73341 h 13.36146 13.36145 l 1.67376,-0.90748 c 2.78354,-1.50918 4.5548,-4.09812 4.76182,-6.96005 0.085,-1.17497 0.20933,-1.53066 0.54154,-1.54908 1.25922,-0.0698 11.29512,0.0843 11.3858,0.17485 0.17828,0.17797 -4.39661,7.97718 -6.66267,11.35843 -8.40515,12.54156 -19.3221,23.4586 -31.80858,31.80884 -4.4669,2.98721 -6.28609,4.06245 -11.1125,6.56807 -12.31095,6.3912 -25.62451,10.50833 -39.29063,12.15034 -2.85066,0.34252 -11.08451,0.91869 -13.29531,0.93037 l -0.7276,0.004 z m 60.94781,-23.27782 c 3.43129,-1.75254 4.77043,-5.93302 2.95531,-9.22572 -0.80864,-1.46688 -2.19705,-2.62142 -3.81604,-3.17325 -1.25985,-0.42941 -18.75081,-0.42542 -20.18611,0.005 -1.18503,0.35504 -3.22244,2.03988 -3.78705,3.13171 -2.01353,3.89375 0.1931,8.75008 4.45516,9.80486 0.46102,0.11409 4.94587,0.18636 9.96633,0.16059 l 9.12813,-0.0469 1.28427,-0.65594 z"
           id="path881" />
        <path
           style="fill:#2c8f83;stroke-width:0.264583"
           d="m 91.090228,295.30696 27.979692,-0.0686 -5.3e-4,-11.57431 -5.3e-4,-11.57432 3.50628,0.15535 c 4.33213,0.19194 5.10361,0.40278 7.60732,2.07904 1.13552,0.76024 3.69867,3.80402 3.7024,4.39665 0.001,0.15456 0.23989,0.77389 0.53094,1.37628 0.75596,1.56466 0.73734,5.12688 -0.0383,7.3209 -1.09722,3.10382 -3.32194,5.587 -6.17783,6.89555 -2.57134,1.17817 -3.08785,1.19483 -34.926625,1.12662 l -30.162501,-0.0646 27.979689,-0.0686 z M 33.874029,272.15591 c 3e-5,-0.10914 9.272043,-0.19844 20.604479,-0.19844 11.332435,0 21.006263,-0.0766 21.497396,-0.17029 0.520385,-0.0992 0.801013,-0.0716 0.672582,0.0661 -0.266769,0.2862 -42.774528,0.58691 -42.774457,0.30259 z m 65.446365,-0.34161 c -0.889637,-0.38994 -2.347365,-1.98417 -2.560891,-2.80071 -0.226214,-0.86504 0.197776,-0.51154 0.761288,0.63472 1.058786,2.1537 1.07937,2.15771 11.891829,2.31859 l 9.525,0.14171 -9.3927,0.0351 c -7.46083,0.0279 -9.5638,-0.0399 -10.224526,-0.32945 z m -21.863723,-0.59032 c 0.32329,-0.25142 0.888836,-0.86722 1.256771,-1.36843 0.367935,-0.50122 0.668973,-0.76945 0.668973,-0.59608 0,0.42286 -1.834782,2.43497 -2.2136,2.42753 -0.164967,-0.003 -0.03543,-0.21159 0.287856,-0.46302 z m -18.844049,-8.266 c -0.606194,-0.11064 0.395195,-0.15762 2.343984,-0.10997 1.871271,0.0457 3.468693,0.14957 3.549825,0.2307 0.209851,0.20985 -4.625132,0.11081 -5.893809,-0.12073 z m -4.101041,-0.89031 c -4.88209,-1.69855 -9.026356,-5.40098 -11.281538,-10.07878 -0.489114,-1.01454 -0.881237,-2.02657 -0.871389,-2.24896 0.0098,-0.22238 0.143407,-0.10668 0.296799,0.25712 1.723485,4.08768 4.198186,7.38471 6.976748,9.29509 1.489345,1.02399 4.935365,2.58527 6.357998,2.88061 0.787488,0.16348 1.431798,0.34833 1.431798,0.41077 0,0.2714 -1.320226,0.0374 -2.910416,-0.51585 z m 59.134379,-0.16437 c 0.0899,-0.14552 0.36485,-0.26276 0.61093,-0.26053 0.38557,0.003 0.39255,0.0395 0.0505,0.26053 -0.51816,0.33486 -0.86841,0.33486 -0.66146,0 z m 2.77812,-1.22139 c 0.94589,-0.52292 1.92815,-1.13533 2.18282,-1.3609 0.43099,-0.38177 0.46302,-1.47776 0.46302,-15.84499 v -15.43486 l -1.46726,-0.82807 c -0.80698,-0.45543 -1.40738,-0.88793 -1.33421,-0.9611 0.23131,-0.23131 1.99524,0.94737 3.76813,2.51792 5.1235,4.53873 7.61772,10.95353 6.73291,17.31616 -0.18783,1.35067 -0.44926,2.56889 -0.58096,2.70713 -0.13169,0.13824 -0.24318,0.49543 -0.24775,0.79375 -0.008,0.51281 -0.70427,2.01885 -2.12483,4.59508 -0.90627,1.64355 -5.09847,5.57738 -7.03203,6.59864 -2.20915,1.16684 -2.50316,1.08614 -0.35984,-0.0988 z M 42.002202,248.85093 c -0.104841,-0.26656 -0.183076,-0.74281 -0.17385,-1.05833 0.0159,-0.54436 0.02993,-0.54072 0.274421,0.0713 0.14171,0.35472 0.219942,0.83097 0.173849,1.05833 -0.06894,0.34008 -0.117602,0.32743 -0.27442,-0.0713 z m -0.603917,-3.2593 c -0.224779,-1.79907 0.01066,-4.71787 0.541033,-6.70708 0.413205,-1.54978 0.40857,-1.47218 -0.150167,2.51355 -0.142798,1.01864 -0.182181,2.71528 -0.08752,3.77031 0.202814,2.26035 -0.03275,2.58901 -0.30335,0.42322 z m 168.451855,-0.19925 c -0.65973,-2.94105 -2.83287,-5.48667 -5.57254,-6.52767 -1.22279,-0.46462 -2.09227,-0.50932 -9.90641,-0.50932 h -8.56598 l -0.40786,-0.8599 c -1.09349,-2.30537 -1.33087,-3.49672 -1.33114,-6.68073 -2.6e-4,-3.76789 0.57437,-5.82992 2.39649,-8.59896 1.86074,-2.82773 3.51087,-4.35509 6.13508,-5.67862 3.25321,-1.64077 2.22848,-1.56319 21.96144,-1.66263 9.95427,-0.0502 18.1854,0.004 18.2914,0.1193 0.37808,0.41293 -1.66126,8.94756 -3.49589,14.63029 -1.40111,4.33994 -3.54669,9.7588 -5.50194,13.89567 l -1.57573,3.33389 -6.06222,-0.0564 -6.06222,-0.0564 z M 115.3031,226.03371 c -0.083,-0.083 -0.96602,-0.43317 -1.96233,-0.77823 -0.99631,-0.34506 -1.60759,-0.63437 -1.35838,-0.64291 0.53162,-0.0182 3.40127,1.00264 3.76701,1.34007 0.15755,0.14537 0.14932,0.23191 -0.022,0.23191 -0.15038,0 -0.34129,-0.0679 -0.42426,-0.15084 z m -5.59172,-1.64594 c -0.0711,-0.11511 0.27902,-0.16162 0.77814,-0.10335 0.49911,0.0583 0.90748,0.15245 0.90748,0.20929 0,0.19912 -1.55758,0.10122 -1.68562,-0.10594 z M 8.1597032,207.73031 c 2.2281868,-0.0443 5.8000618,-0.0442 7.9375008,2.2e-4 2.137436,0.0444 0.314375,0.0807 -4.05125,0.0806 -4.3656252,-1.2e-4 -6.1144381,-0.0365 -3.8862508,-0.0808 z M 162.32929,205.78733 c -2.37489,-0.4141 -4.19893,-0.82692 -4.61701,-1.04493 -0.22554,-0.11761 -0.94585,-0.40918 -1.6007,-0.64794 -0.65484,-0.23876 -1.63455,-0.72398 -2.17714,-1.07826 -0.54258,-0.35428 -1.09993,-0.64415 -1.23856,-0.64415 -0.42001,0 -4.93404,-4.54697 -5.77867,-5.82083 -1.06377,-1.60436 -2.27592,-4.10381 -2.69461,-5.55625 -0.18877,-0.65485 -0.47287,-1.54207 -0.63133,-1.97161 -0.41638,-1.12869 -0.38978,-7.94916 0.0367,-9.40548 0.74014,-2.52749 0.93043,-3.08049 1.45673,-4.23333 2.07711,-4.54988 6.1864,-8.68957 10.66788,-10.74683 1.50038,-0.68876 2.06016,-0.87052 4.59236,-1.49114 0.82711,-0.20272 11.74358,-0.31897 35.75487,-0.38077 l 34.56425,-0.0889 0.55187,2.05437 c 1.32857,4.94572 2.46661,11.34958 3.25678,18.32624 0.38487,3.39815 0.41797,18.99209 0.0455,21.43125 l -0.22222,1.45521 -35.32187,0.037 c -19.42704,0.0204 -35.91719,-0.0668 -36.6448,-0.19364 z M 30.343744,200.65048 c 0.28488,-0.83608 0.378913,-1.92324 0.314669,-3.63802 -0.114699,-3.06152 -0.940755,-4.93201 -3.117485,-7.05911 -0.8339,-0.81489 -1.112687,-1.1894 -0.643083,-0.8639 2.420091,1.67747 4.317873,5.33222 4.327261,8.33343 0.0038,1.22221 -0.771245,4.42001 -1.071301,4.42001 -0.118996,0 -0.03352,-0.53659 0.189939,-1.19241 z m -5.730081,-12.64926 c -1.13986,-0.5506 -1.619311,-0.58121 -11.244792,-0.71791 l -10.0541674,-0.14279 9.6572924,-0.0531 c 9.975622,-0.0549 10.997719,0.0312 12.454337,1.04944 0.855075,0.59771 0.626473,0.55956 -0.81267,-0.1356 z m -4.365625,-8.23535 c -1.72197,-0.56261 -2.595428,-0.94804 -2.45857,-1.0849 0.0706,-0.0706 0.593127,0.072 1.161175,0.31695 0.568047,0.24493 1.747186,0.59201 2.620311,0.77131 1.231371,0.25285 1.379757,0.32782 0.661459,0.3342 -0.509323,0.005 -1.402292,-0.14738 -1.984375,-0.33756 z m 39.026043,-0.008 c 0.945885,-0.18167 1.957916,-0.42397 2.248958,-0.53844 0.355836,-0.13997 0.4425,-0.12055 0.264583,0.0593 -0.44949,0.4543 -2.010113,0.87026 -3.148335,0.83913 -0.981641,-0.0268 -0.921168,-0.0611 0.634794,-0.35996 z m 4.233333,-1.47867 c 1.597872,-0.87885 3.695044,-2.80119 4.543671,-4.16489 0.299075,-0.48059 0.606328,-0.81126 0.682782,-0.7348 0.175821,0.17582 -1.091925,1.86511 -2.263638,3.01633 -1.041604,1.02339 -3.575754,2.6955 -4.074583,2.68853 -0.188892,-0.003 0.311404,-0.36496 1.111768,-0.80517 z m -47.663136,-0.63404 c -0.675815,-0.49595 -1.687847,-1.4479 -2.248957,-2.11543 -0.994661,-1.18333 -2.464257,-3.71595 -2.463679,-4.24577 1.59e-4,-0.14552 0.393464,0.46479 0.874012,1.35625 1.143786,2.12183 2.167737,3.33788 3.908403,4.64166 1.705033,1.2771 1.708078,1.27986 1.401516,1.27157 -0.133395,-0.004 -0.795478,-0.41233 -1.471295,-0.90828 z m 53.104105,-4.98355 c 0.09936,-0.26094 0.247303,-0.40778 0.328766,-0.32632 0.08146,0.0815 1.69e-4,0.29496 -0.180652,0.47443 -0.261308,0.25937 -0.291698,0.22898 -0.148114,-0.14811 z m 0.504404,-1.11308 c 0.111332,-0.29104 0.356333,-1.06495 0.544449,-1.71979 0.188116,-0.65484 0.352674,-0.9405 0.365686,-0.63479 0.02895,0.68009 -0.480248,2.25813 -0.845143,2.61917 -0.179795,0.17789 -0.201088,0.0912 -0.06499,-0.26459 z m -58.697063,-1.06856 c -0.09074,-0.23646 -0.15424,-0.68808 -0.141116,-1.0036 0.01691,-0.40649 0.09841,-0.31462 0.279666,0.31524 0.263534,0.91577 0.155219,1.45391 -0.13855,0.68836 z m -0.508914,-3.09862 c -0.0832,-0.61847 -0.05204,-1.5412 0.06925,-2.05053 0.182206,-0.76513 0.22523,-0.56974 0.247608,1.12448 0.0149,1.12779 -0.01626,2.05052 -0.06925,2.05052 -0.05298,0 -0.164404,-0.50601 -0.247608,-1.12447 z m 60.226592,-0.8599 c 0.0011,-1.01865 0.049,-1.40294 0.106272,-0.854 0.05727,0.54895 0.05631,1.38239 -0.0021,1.85209 -0.05845,0.4697 -0.105312,0.0206 -0.104137,-0.99809 z m -0.527421,-3.33507 c -0.155501,-0.63957 -0.378338,-1.39074 -0.495194,-1.66927 -0.137647,-0.32809 -0.116242,-0.44696 0.06079,-0.33755 0.336653,0.20807 0.972672,2.40306 0.824825,2.8466 -0.05923,0.17769 -0.234918,-0.20021 -0.390419,-0.83978 z m -59.338473,0.37096 c -0.02569,-0.89319 0.750012,-2.71715 2.013473,-4.73445 0.901593,-1.43952 3.128912,-3.59188 4.39392,-4.24604 1.225118,-0.63353 1.122912,-0.22594 -0.12835,0.51186 -2.545654,1.50104 -4.624258,4.18232 -5.68373,7.3317 -0.318202,0.94588 -0.586093,1.4575 -0.595313,1.13693 z m 58.050349,-3.65047 c -0.271547,-0.58209 -1.274323,-1.84529 -2.22839,-2.80712 -2.691273,-2.71317 -5.473523,-3.91758 -9.139761,-3.95651 -1.164167,-0.0123 -2.652448,-0.11781 -3.307292,-0.23433 -1.00792,-0.17934 -0.804916,-0.21623 1.322917,-0.24038 4.33011,-0.0491 7.674303,1.00842 10.49324,3.31832 1.368793,1.12163 3.628499,4.15292 3.463764,4.6465 -0.06091,0.18252 -0.332931,-0.1444 -0.604478,-0.72648 z m -50.248674,-5.91702 c 0.337603,-0.30687 1.94608,-0.83442 2.473648,-0.8113 0.232947,0.0102 -0.231304,0.24497 -1.031668,0.52171 -1.672683,0.57836 -1.784337,0.60078 -1.44198,0.28959 z m 3.690938,-1.09444 c 0.436562,-0.11109 2.282031,-0.1993 4.101042,-0.19603 2.627326,0.005 3.008106,0.0473 1.852083,0.20711 -1.945775,0.26898 -7.016652,0.25954 -5.953125,-0.0111 z m 8.25916,-0.81845 c 2.738183,-1.75379 2.713587,-5.88596 -0.04498,-7.55696 -0.714145,-0.43259 -1.633808,-0.50434 -8.081886,-0.6305 l -7.276042,-0.14236 7.088145,-0.0561 c 6.651038,-0.0526 7.152741,-0.0231 8.135642,0.47832 2.077386,1.05981 3.067666,3.54956 2.256554,5.67343 -0.441076,1.15494 -1.974445,2.79232 -2.606736,2.78356 -0.176837,-0.002 0.06135,-0.24969 0.529305,-0.54941 z m 21.038201,-0.13381 c -0.874419,-0.68912 -1.65944,-1.90866 -1.635215,-2.54033 0.0072,-0.18913 0.257569,0.15997 0.556258,0.77577 0.300407,0.61935 0.944745,1.36789 1.442018,1.67523 0.494425,0.30557 0.898954,0.6054 0.898954,0.66629 0,0.2659 -0.458475,0.0563 -1.262015,-0.57696 z m -1.627513,-4.7633 c -0.03159,-0.84118 1.057418,-2.2737 2.235894,-2.94117 0.972462,-0.55078 1.345366,-0.59158 5.019259,-0.54911 l 3.96875,0.0459 -4.101041,0.14821 c -3.629078,0.13116 -4.19239,0.21344 -4.894792,0.71497 -1.078931,0.77039 -1.598981,1.40224 -1.928961,2.34366 -0.217231,0.61975 -0.2828,0.67183 -0.299109,0.23757 z M 65.95481,143.7011 c 2.582995,-0.0433 6.809714,-0.0433 9.392709,0 2.582995,0.0433 0.469635,0.0788 -4.696355,0.0788 -5.165989,0 -7.279349,-0.0354 -4.696354,-0.0788 z m 16.795444,-0.60608 c 1.051946,-0.27181 2.145445,-0.61879 2.430002,-0.77108 0.284554,-0.15229 0.614495,-0.27212 0.733203,-0.2663 0.406143,0.0199 -1.275723,0.81941 -2.515005,1.1955 -0.680852,0.20663 -1.53557,0.36677 -1.899372,0.35587 -0.363803,-0.0109 0.199226,-0.24219 1.251172,-0.51399 z m 68.109716,-0.66973 c -0.0762,-2.01444 -1.16066,-3.66905 -3.08276,-4.70347 -0.98668,-0.531 -1.38078,-0.56513 -5.82083,-0.50405 -6.31031,0.0868 -6.33526,0.0817 -6.74138,-1.3688 -0.50259,-1.79508 -0.1422,-4.35896 0.93254,-6.63421 0.85704,-1.81438 2.55591,-3.39275 4.69297,-4.36013 l 1.79455,-0.81233 14.47732,0.0727 14.47733,0.0727 1.52466,0.76027 c 1.73554,0.86543 3.8142,2.98296 4.62167,4.7081 0.67318,1.43822 0.96828,3.53537 0.73557,5.22737 -0.16551,1.20339 -0.25681,1.33408 -1.19405,1.70909 -2.03666,0.81491 -3.85108,2.97898 -4.47067,5.33221 -0.4303,1.63429 -0.97333,1.70984 -12.29058,1.70984 h -9.6106 z m -64.598388,-0.47615 c 0,-0.0613 0.579112,-0.48313 1.286912,-0.93732 1.267621,-0.81343 3.719028,-3.22808 4.589833,-4.52102 0.245025,-0.3638 0.451744,-0.53687 0.459378,-0.38459 0.02125,0.42392 -2.722857,3.56543 -3.866299,4.42622 -1.063482,0.8006 -2.469824,1.60728 -2.469824,1.41671 z m 6.816786,-7.17813 c 0.474559,-1.01113 0.825333,-2.06973 1.358908,-4.10104 0.196649,-0.74864 0.247819,-0.80076 0.26711,-0.27205 0.03499,0.95898 -0.98434,4.00827 -1.595176,4.7719 l -0.527555,0.65952 z m 1.711264,-6.48229 c 0,-0.50933 0.05445,-0.71769 0.121002,-0.46302 0.06655,0.25466 0.06655,0.67138 0,0.92604 -0.06655,0.25466 -0.121002,0.0463 -0.121002,-0.46302 z m -0.42314,-3.53277 c -0.110842,-0.56057 -0.140118,-1.08064 -0.06506,-1.1557 0.200443,-0.20044 0.490897,1.12653 0.370131,1.69098 -0.06248,0.292 -0.183475,0.0797 -0.305075,-0.53528 z m -0.771819,-2.56377 c -0.246528,-0.62761 -0.396957,-1.19238 -0.334288,-1.25505 0.161145,-0.16114 0.969132,1.83633 0.866884,2.14307 -0.0464,0.13919 -0.286065,-0.26042 -0.532596,-0.88802 z m -1.150144,-2.53831 c -0.262271,-0.55269 -1.378315,-1.90182 -2.480095,-2.99805 -1.86707,-1.85766 -2.805481,-2.46125 -6.084102,-3.91334 -0.373042,-0.16521 -0.48522,-0.30076 -0.257271,-0.31086 0.643864,-0.0285 4.358723,1.96903 5.460535,2.93624 2.20844,1.93865 4.380151,4.74855 3.979617,5.14909 -0.07801,0.078 -0.356413,-0.31038 -0.618684,-0.86308 z m -11.077739,-7.50474 -0.79375,-0.20197 0.79375,-0.0127 c 0.436562,-0.007 1.031875,0.0896 1.322917,0.21468 l 0.529166,0.22739 -0.529166,-0.0127 c -0.291042,-0.007 -0.886355,-0.1036 -1.322917,-0.21468 z m 75.00938,-17.512621 c -4.63539,-1.954416 -6.39188,-4.200113 -7.06247,-9.029427 -0.0771,-0.555367 0.005,-1.527465 0.18189,-2.160219 l 0.32211,-1.150461 1.36101,0.389491 c 6.3071,1.80496 13.19792,4.525499 19.69765,7.776758 2.8662,1.433711 5.62799,2.870399 6.13731,3.192643 l 0.92604,0.585893 -0.79375,0.34308 c -1.01826,0.440121 -19.73817,0.487206 -20.76979,0.05224 z"
           id="path879" />
      </g>
    </g>
    <path
       style="fill:#000000;stroke-width:0.264583"
       d="m 48.633382,114.96685 c -0.145521,-0.0485 -0.589822,-0.15992 -0.987335,-0.24751 -0.960136,-0.21157 -2.497275,-1.58914 -3.107166,-2.78463 -0.270298,-0.52983 -0.698381,-1.85079 -0.951296,-2.93547 -0.406199,-1.74207 -0.472781,-4.06165 -0.570746,-19.883549 l -0.110903,-17.91142 -1.832991,-1.49963 C 38.001178,67.191541 36.614809,64.98983 35.337813,60.59663 34.976286,59.35289 34.898052,56.862696 34.807763,43.725541 L 34.701839,28.313563 h 14.969419 14.969416 v 14.228293 c 0,8.405063 -0.114345,15.14022 -0.279389,16.456461 -0.587701,4.687003 -2.12135,7.586094 -5.541444,10.475104 l -2.248959,1.89974 -0.155977,17.95926 c -0.131093,15.094069 -0.222927,18.239709 -0.575625,19.717149 -0.735353,3.08036 -1.937583,4.79317 -3.956253,5.63641 -0.883862,0.36921 -2.552486,0.51344 -3.249645,0.28087 z m 1.705944,-6.43312 c 0.600749,-2.23101 0.80319,-7.85623 0.805336,-22.378009 0.0016,-11.30269 0.0871,-15.60046 0.326091,-16.40417 0.337307,-1.13436 1.982449,-2.95648 4.640641,-5.139841 2.905167,-2.38623 2.966074,-2.75758 2.969889,-18.108044 l 0.0031,-12.633854 H 57.761466 56.43855 v 9.9177 9.917702 l -0.766673,0.858057 c -0.634457,0.710078 -0.95853,0.858057 -1.879161,0.858057 -0.920631,0 -1.244703,-0.147979 -1.87916,-0.858057 l -0.766673,-0.858057 v -9.917702 -9.9177 h -1.455208 -1.455209 v 10.004277 c 0,9.791334 -0.0118,10.016944 -0.554574,10.599541 -1.29085,1.385565 -3.277733,1.233133 -4.227415,-0.324324 C 42.978339,53.368381 42.946756,52.713 42.94583,43.593249 l -9.89e-4,-9.723437 H 41.61016 40.27548 l 0.07791,12.898437 c 0.0949,15.711331 -0.14509,14.592611 3.944461,18.387371 1.828959,1.697111 2.8331,2.854561 3.271951,3.771481 l 0.633169,1.32292 0.120584,17.4625 c 0.0759,10.99093 0.229891,18.132119 0.415531,19.269349 0.481415,2.94919 1.070224,3.5202 1.60024,1.55186 z m 100.820104,6.15661 c -3.02691,-1.35694 -4.51277,-4.76002 -5.02102,-11.4997 -0.16298,-2.16115 -0.26962,-17.133819 -0.27001,-37.91006 -7.9e-4,-37.752491 -0.0909,-35.702555 1.60898,-36.581578 1.14407,-0.591626 2.12939,-0.285228 4.8688,1.514015 7.10793,4.668496 11.30397,12.292692 12.3114,22.369811 0.54643,5.465857 -0.23372,9.608002 -3.32754,17.667193 l -1.82826,4.7625 -0.16378,15.21354 c -0.17959,16.683579 -0.35327,18.805129 -1.77449,21.676249 -1.29377,2.61365 -4.08368,3.82825 -6.40408,2.78803 z m 2.2933,-7.96729 c 0.32113,-1.64147 0.44528,-5.29628 0.59186,-17.423029 0.20842,-17.24271 0.0197,-15.56141 2.42461,-21.60565 2.48706,-6.250811 3.02385,-8.8082 2.81277,-13.400652 -0.22725,-4.944129 -1.5017,-9.415701 -3.65145,-12.811593 -0.83389,-1.317273 -3.84448,-4.701889 -4.1823,-4.701905 -0.21857,-8e-6 -0.13778,64.303379 0.0836,66.557919 0.32142,3.27308 0.99344,5.98318 1.38624,5.59038 0.0705,-0.0706 0.31114,-1.06302 0.53465,-2.20547 z m -51.24122,2.89332 C 93.924805,109.27702 85.839234,106.22306 79.280793,100.95532 72.796244,95.746931 67.966391,88.280681 65.935066,80.324761 62.423461,66.571161 66.357365,52.361559 76.415429,42.46877 95.297205,23.897258 126.84048,29.017794 138.80252,52.596297 c 3.93311,7.752573 5.16481,15.830184 3.7302,24.462974 -2.23112,13.42589 -11.83314,25.136809 -24.58798,29.988289 -4.78472,1.81993 -10.64703,2.77709 -15.73323,2.56881 z m 6.94842,-5.77459 c 11.09281,-1.94039 19.70893,-8.159059 24.77718,-17.882919 2.74765,-5.27159 3.59987,-9.03512 3.58707,-15.84113 -0.01,-5.253501 -0.33012,-7.225461 -1.86809,-11.502896 -3.69897,-10.28764 -12.91046,-18.505571 -23.58452,-21.040655 -20.579407,-4.887597 -40.196539,9.212789 -41.867841,30.093731 -1.099074,13.73167 6.031826,26.61993 18.150158,32.804259 3.750209,1.91384 6.729458,2.8484 11.476368,3.60001 1.728235,0.27364 7.224045,0.13792 9.329675,-0.2304 z"
       id="path861"
       sodipodi:nodetypes="csssscssscccssscssscscssccccccssscccccsscscccssscssssscsssscssssscsssscsssssssssssscssssss" />
  </g>
</svg>
